
<svg width="28px" height="28px" viewBox="0 0 28 28" version="1.1" xmlns="http://www.w3.org/2000/svg" xmlns:xlink="http://www.w3.org/1999/xlink">
    <!-- Generator: Sketch 47.1 (45422) - http://www.bohemiancoding.com/sketch -->
    <desc>Created with Sketch.</desc>
    <defs></defs>
    <g id="Page-1" stroke="none" stroke-width="1" fill="none" fill-rule="evenodd">
        <g id="Artboard-2" transform="translate(-370.000000, -240.000000)" fill="#000000">
            <g id="Logo" transform="translate(370.000000, 240.000000)">
                <g id="MIxD-text" transform="translate(7.000000, 12.218182)">
                    <path d="M0.985637142,3.18029511 L0.985637142,3.66923808 C0.985637142,3.83501012 0.845715702,3.96938289 0.673098418,3.96938289 L0.332307133,3.96938289 C0.15968985,3.96938289 0.0197684096,3.83501012 0.0197684096,3.66923808 L0.0197684096,0.356293143 C0.0197684096,0.190601615 0.15968985,0.0562288451 0.332307133,0.0562288451 L0.876734835,0.0562288451 C1.00148205,0.0562288451 1.11424079,0.127400522 1.16370373,0.237378475 L1.60409158,1.21703567 C1.71450293,1.46251355 2.07885199,1.45728034 2.18155047,1.20874305 L2.57951756,0.245590591 C2.62680078,0.131265047 2.74190692,0.0562288451 2.87000755,0.0562288451 L3.45601766,0.0562288451 C3.62863494,0.0562288451 3.76855638,0.190601615 3.76855638,0.356293143 L3.76855638,3.66923808 C3.76855638,3.83501012 3.62863494,3.96938289 3.45601766,3.96938289 L3.09108175,3.96938289 C2.91846447,3.96938289 2.77854303,3.83501012 2.77854303,3.66923808 L2.77854303,3.18657496 C2.77854303,2.85970052 2.31166316,2.76832059 2.17844856,3.06910949 L2.17123871,3.08521168 C2.12219494,3.19599474 2.00901702,3.26789102 1.88368296,3.26789102 L1.88368296,3.26789102 C1.7597741,3.26789102 1.64760221,3.19760496 1.59772009,3.08875416 L1.58413874,3.05928715 C1.44782222,2.76212125 0.985637142,2.85559446 0.985637142,3.18029511" id="Fill-4"></path>
                    <path d="M5.65891265,3.96935069 L5.23965134,3.96935069 C5.06703406,3.96935069 4.92711262,3.83497792 4.92711262,3.66920588 L4.92711262,0.35634145 C4.92711262,0.190569411 5.06703406,0.0561966407 5.23965134,0.0561966407 L5.65891265,0.0561966407 C5.83152993,0.0561966407 5.97145137,0.190569411 5.97145137,0.35634145 L5.97145137,3.66920588 C5.97145137,3.83497792 5.83152993,3.96935069 5.65891265,3.96935069" id="Fill-6"></path>
                    <path d="M9.73146492,3.49969008 L9.1515748,2.79570237 C9.06664944,2.69264835 9.06463739,2.54772865 9.14646084,2.44242033 L9.77011308,1.64077284 C9.91875341,1.44963985 9.77673608,1.17751285 9.52824768,1.17751285 L9.16993477,1.17751285 C9.06530808,1.17751285 8.9680589,1.22952292 8.91314665,1.31510606 L8.72250474,1.61154736 C8.61041668,1.78601458 8.35027514,1.79656152 8.22318053,1.63183612 L7.96320667,1.2948173 C7.90628236,1.22098876 7.81632688,1.17751285 7.72067058,1.17751285 L7.32572157,1.17751285 C7.07329289,1.17751285 6.93236543,1.45728839 7.0891378,1.64729422 L7.70407115,2.3929061 C7.79201459,2.49950259 7.79092472,2.65054113 7.70138842,2.75601047 L7.07295755,3.49638913 C6.91216107,3.68575088 7.05250169,3.96939094 7.30685858,3.96939094 L7.62191237,3.96939094 C7.71874236,3.96939094 7.80970388,3.92470737 7.86646051,3.84942963 L8.11612261,3.51804658 C8.23516901,3.3600841 8.47946564,3.35774928 8.60161396,3.51353796 L8.86871384,3.85393825 C8.92580581,3.92663963 9.01500678,3.96939094 9.10982472,3.96939094 L9.49479732,3.96939094 C9.74705832,3.96939094 9.88798578,3.68969592 9.73146492,3.49969008" id="Fill-8"></path>
                    <path d="M12.8525765,1.48100691 C12.8525765,1.15839955 12.580195,0.896819485 12.2442662,0.896819485 L12.2414996,0.896819485 C12.0688823,0.896819485 11.9289609,1.03119226 11.9289609,1.19696429 L11.9289609,2.82280235 C11.9289609,2.98857439 12.0688823,3.12294716 12.2414996,3.12294716 L12.2442662,3.12294716 C12.580195,3.12294716 12.8525765,2.8614476 12.8525765,2.53875973 L12.8525765,1.48100691 Z M13.0698781,0.0562046918 C13.5166375,0.0562046918 13.8969153,0.409808769 13.8969153,0.85044518 L13.8969153,3.16932146 C13.8969153,3.61567415 13.5166375,3.96935874 13.0698781,3.96935874 L11.1911247,3.96935874 C11.0185074,3.96935874 10.878586,3.83498597 10.878586,3.66921393 L10.878586,0.356349501 C10.878586,0.190577462 11.0185074,0.0562046918 11.1911247,0.0562046918 L13.0698781,0.0562046918 Z" id="Fill-10"></path>
                </g>
                <path d="M26.4164726,15.955237 C26.4067008,15.8576129 26.3954256,15.7597068 26.3833988,15.6617068 C26.3795464,15.6307001 26.3752243,15.5995994 26.3710901,15.5685927 C26.3620699,15.4995323 26.352674,15.430378 26.3424324,15.3612236 C26.3371706,15.325237 26.331627,15.2893444 26.3260834,15.2533578 C26.3156538,15.1862706 26.3045666,15.1190894 26.2931035,15.0519082 C26.287278,15.0179887 26.2816404,14.9840692 26.275533,14.9501498 C26.2606874,14.8676531 26.2449961,14.7850625 26.2286471,14.7024719 C26.2251706,14.6850894 26.2220699,14.6677068 26.2184995,14.6503243 C26.1982981,14.5503511 26.1766874,14.4504719 26.1541371,14.3504988 C26.1478417,14.3229686 26.1411706,14.2953444 26.1346874,14.2678142 C26.1176807,14.1944316 26.1001102,14.1211431 26.0817881,14.0478545 C26.0733317,14.0137471 26.0644995,13.9796397 26.0556673,13.9455323 C26.0473048,13.9131162 26.0395062,13.8807001 26.0308619,13.848284 C26.0230632,13.8186867 26.0230632,13.7873981 26.0308619,13.7577068 C26.0395062,13.7254786 26.0473048,13.6931565 26.0555733,13.6608343 C26.0644995,13.626633 26.0732377,13.5923377 26.081882,13.5581363 C26.1001102,13.4849417 26.1175867,13.4117471 26.1346874,13.3385525 C26.1410766,13.3108343 26.1478417,13.2831162 26.1541371,13.2553981 C26.1766874,13.1555189 26.1982981,13.0557337 26.2184995,12.9559484 C26.2221639,12.93819 26.2252646,12.9203377 26.228835,12.9024853 C26.245184,12.8202706 26.2607813,12.7381498 26.275533,12.656029 C26.2815464,12.6221095 26.287278,12.58819 26.2931035,12.5542706 C26.3045666,12.4869954 26.3156538,12.4197202 26.3260834,12.352539 C26.3317209,12.3166464 26.3371706,12.2807538 26.3424324,12.2448612 C26.352674,12.1757068 26.3620699,12.1065525 26.3710901,12.037586 C26.3752243,12.0064853 26.3795464,11.9753847 26.3833988,11.944378 C26.3954256,11.846378 26.4067008,11.7484719 26.4164726,11.6508478 C26.4362042,11.4540961 26.7112243,11.4229014 26.7705129,11.6114786 C26.9955464,12.3278276 27.110929,13.0638142 27.110929,13.8029954 C27.110929,14.5421766 26.9955464,15.2782572 26.7705129,15.9946061 C26.7112243,16.1831833 26.4362042,16.1518947 26.4164726,15.955237 M25.5366337,10.5952102 C25.535976,10.6393712 25.5352243,10.6835323 25.5340968,10.7277874 C25.5326874,10.779935 25.5307142,10.8322706 25.5285532,10.8847001 C25.5267679,10.9287672 25.5249827,10.9728343 25.5226337,11.0169954 C25.5198149,11.0701766 25.5163384,11.1235457 25.5127679,11.1768209 C25.5098552,11.2205122 25.5069424,11.2642035 25.5035599,11.3080827 C25.5019626,11.3278142 25.4999894,11.3476397 25.4982981,11.3674652 C25.4740565,11.5438276 25.2299491,11.5834786 25.1539357,11.4174518 C25.1194525,11.3420961 25.0823384,11.2673981 25.0465397,11.1923243 C25.0183518,11.1332236 24.9910095,11.073935 24.961976,11.0150223 C24.9022176,10.8935323 24.8400162,10.7727001 24.7768753,10.6519618 C24.7560162,10.612029 24.7362847,10.5717202 24.7150498,10.5318813 C24.6297344,10.3718679 24.5416001,10.2127001 24.4504592,10.054378 C24.4280028,10.0152907 24.4040431,9.97667326 24.3812109,9.93767997 C24.3207948,9.8347001 24.2608485,9.73153232 24.1979894,9.62930413 C24.1884995,9.61370681 24.1813585,9.59660614 24.1771303,9.57884775 C24.1494122,9.46299541 24.1191572,9.34845849 24.089184,9.23382762 C24.077533,9.18919675 24.0669156,9.14390816 24.0549827,9.09937124 C24.0074391,8.92329071 23.9573585,8.74871353 23.9046471,8.5756397 C23.891023,8.53082091 23.8758954,8.48675379 23.8618954,8.44212292 C23.8216807,8.31386789 23.7808082,8.18598869 23.7376807,8.05951889 C23.7160699,7.99619004 23.6931438,7.93370681 23.6708753,7.87075379 C23.6434391,7.79342494 23.6171303,7.7153444 23.5886605,7.6385793 C23.5249558,7.46729071 23.7262176,7.32249876 23.8680968,7.43083433 C23.8822847,7.44286118 23.8968485,7.45479406 23.9109424,7.46682091 C23.9465532,7.4971699 23.9816001,7.52789473 24.0166471,7.55861957 C24.0548887,7.59206923 24.0931303,7.62561285 24.1308082,7.65953232 C24.1651035,7.69044507 24.199023,7.7216397 24.2328485,7.75283433 C24.2700565,7.78712963 24.3072646,7.82151889 24.3438149,7.85619004 C24.3769827,7.88766655 24.4097746,7.91933098 24.4423787,7.95108936 C24.4784592,7.98613634 24.5143518,8.02127728 24.5497746,8.0567001 C24.5818149,8.08874037 24.6134793,8.1208746 24.6449558,8.15319675 C24.6799089,8.18899541 24.71458,8.22488802 24.7487813,8.26106252 C24.7796001,8.29347863 24.8100431,8.32608265 24.8402981,8.3588746 C24.8740297,8.39542494 24.9073854,8.43206923 24.9404592,8.46890145 C24.9700565,8.50188131 24.999278,8.53486118 25.0282176,8.56812292 C25.0608216,8.60533098 25.0929558,8.64282091 25.1248082,8.6804048 C25.1529022,8.71357259 25.1808082,8.74683433 25.2083384,8.780284 C25.2400028,8.81852561 25.2710095,8.8570491 25.3018283,8.89566655 C25.3284189,8.92883433 25.3548216,8.96209608 25.3807545,8.99554574 C25.3946605,9.01339809 25.4080968,9.03153232 25.4218149,9.04947863 C25.4373183,9.07165312 25.4477478,9.09674037 25.4524458,9.12351889 C25.4555464,9.14625715 25.458835,9.16880749 25.4617478,9.1916397 C25.4669156,9.23298198 25.4716136,9.27451218 25.4763115,9.31604238 C25.4818552,9.36574708 25.4872109,9.4156397 25.4920028,9.46572024 C25.4961371,9.50809608 25.4998015,9.55056587 25.5033719,9.59312963 C25.5075062,9.64321017 25.5112646,9.69338467 25.5147411,9.74365312 C25.5176538,9.78668668 25.5201907,9.8298142 25.5225397,9.87303567 C25.5253585,9.92339809 25.5277075,9.97385447 25.5296807,10.0244988 C25.5314659,10.06819 25.5328753,10.1119753 25.5340968,10.1558545 C25.5355062,10.2064988 25.5363518,10.257237 25.5370095,10.3081632 C25.5375733,10.3523243 25.5379491,10.3964853 25.5379491,10.4408343 C25.5379491,10.4921363 25.5373854,10.5436263 25.5366337,10.5952102 M24.4457612,13.8030894 C24.4457612,13.5789014 24.6275733,13.3971833 24.8516673,13.3971833 C25.0758552,13.3971833 25.2575733,13.5789014 25.2575733,13.8030894 C25.2575733,14.0272773 25.0758552,14.2089954 24.8516673,14.2089954 C24.6275733,14.2089954 24.4457612,14.0272773 24.4457612,13.8030894 M25.5370095,17.2979216 C25.5363518,17.3487538 25.5354122,17.399492 25.5340968,17.4501363 C25.5328753,17.4942035 25.5313719,17.5380827 25.5296807,17.5819618 C25.5277075,17.6323243 25.5253585,17.6824988 25.5226337,17.7325793 C25.5202847,17.7760827 25.5175599,17.819586 25.5146471,17.8629954 C25.5112646,17.912888 25.5075062,17.9626867 25.5033719,18.0123914 C25.4998015,18.055237 25.4961371,18.0979887 25.4920028,18.1406464 C25.4872109,18.1904451 25.4819491,18.2401498 25.4764055,18.2896665 C25.4717075,18.3314786 25.4668216,18.3732907 25.4616538,18.4150088 C25.458835,18.4375592 25.4555464,18.4600155 25.4525397,18.4825659 C25.4477478,18.5092504 25.4373183,18.5344316 25.4218149,18.5566061 C25.4080028,18.5746464 25.3945666,18.5927806 25.3806605,18.610633 C25.3548216,18.6438947 25.3286068,18.6769686 25.3022042,18.7100424 C25.2711035,18.7489417 25.2398149,18.7877471 25.2079626,18.8263645 C25.1808082,18.8593444 25.153278,18.8921363 25.1254659,18.9248343 C25.0932377,18.9630759 25.0605397,19.0010357 25.0274659,19.0389014 C24.9990901,19.0715055 24.9703384,19.1039216 24.9413048,19.1362437 C24.9077612,19.1737337 24.8737478,19.2110357 24.8393585,19.2482437 C24.8097612,19.280284 24.779882,19.3123243 24.749627,19.3441766 C24.7147679,19.3810088 24.6794391,19.4175592 24.6438283,19.4540155 C24.6130095,19.485586 24.5820968,19.5171565 24.5508082,19.5484451 C24.5145397,19.5846196 24.4778954,19.6206061 24.4409693,19.6564048 C24.4091169,19.6873176 24.3771706,19.7182303 24.3448485,19.7489551 C24.3073585,19.7844719 24.2693048,19.8197068 24.2311572,19.8548478 C24.1981773,19.8851967 24.1652914,19.9155457 24.1319357,19.9456129 C24.0931303,19.9804719 24.0537612,20.0150491 24.0142981,20.0495323 C23.9803787,20.0792236 23.9465532,20.1088209 23.9121639,20.1382303 C23.8975062,20.1507269 23.8825666,20.1630357 23.8678149,20.1754384 C23.7259357,20.2833981 23.5249558,20.1387001 23.5886605,19.9675055 C23.6176941,19.8894249 23.6444726,19.809841 23.6723787,19.7311028 C23.6939894,19.670029 23.7162579,19.6094249 23.7372109,19.5479753 C23.7814659,19.418029 23.8235599,19.2867672 23.8648082,19.1550357 C23.8777746,19.1136934 23.8916807,19.0731028 23.9042713,19.0316665 C23.9571706,18.857935 24.007533,18.6827001 24.0551706,18.5060558 C24.0668216,18.4624585 24.0772511,18.4182035 24.0886203,18.3745122 C24.1187813,18.2591296 24.1492243,18.143841 24.1771303,18.027237 C24.1813585,18.0093847 24.1884995,17.992284 24.1980834,17.9766867 C24.2599089,17.8760558 24.3189156,17.7744853 24.3783921,17.6731028 C24.4022579,17.6324182 24.4272511,17.5921095 24.4506471,17.551331 C24.5416941,17.3931028 24.6298283,17.234029 24.7150498,17.0741095 C24.7360968,17.0346464 24.7555464,16.9949014 24.7762176,16.9553444 C24.8396404,16.8340424 24.9022176,16.7126464 24.9622579,16.5904988 C24.9908216,16.5323377 25.017882,16.4738008 25.0456941,16.4155457 C25.0817746,16.3399082 25.1191706,16.2645525 25.1539357,16.188633 C25.2299491,16.0226061 25.4740565,16.0622572 25.4982981,16.2387135 C25.4999894,16.2584451 25.5019626,16.2781766 25.5035599,16.2979082 C25.5069424,16.3417874 25.5098552,16.3855726 25.5127679,16.4293578 C25.5163384,16.482633 25.5198149,16.5359082 25.5226337,16.5889954 C25.5249827,16.6332504 25.5267679,16.6773176 25.5285532,16.7214786 C25.5307142,16.7738142 25.5326874,16.8260558 25.5340968,16.8782035 C25.5352243,16.9225525 25.535976,16.9667135 25.5366337,17.0107806 C25.5373854,17.0623645 25.5379491,17.1139484 25.5379491,17.1652504 C25.5379491,17.2095994 25.5375733,17.2537605 25.5370095,17.2979216 M24.5945934,21.2476129 C24.2472243,21.9133176 23.8083384,22.5154115 23.2856404,23.0381095 C22.7628485,23.5609014 22.1607545,23.9997874 21.4950498,24.3471565 C21.3206605,24.4381095 21.146929,24.2226598 21.2714256,24.0704451 C21.2714256,24.0704451 21.2715196,24.0703511 21.2715196,24.0702572 C21.3712109,23.9484853 21.4684592,23.8235189 21.564486,23.6968612 C21.583184,23.6722437 21.601882,23.6477202 21.620486,23.6229149 C21.7134122,23.4986061 21.8046471,23.3722303 21.8939089,23.2435994 C21.9090364,23.2218947 21.9237881,23.1998142 21.9387277,23.1779216 C22.0221639,23.0561498 22.1040028,22.9326867 22.1840565,22.8073444 C22.19458,22.7908075 22.2053854,22.7746464 22.2159089,22.7581095 C22.3007545,22.623935 22.3831572,22.4874115 22.4639626,22.3492907 C22.472325,22.3349149 22.4813451,22.3211967 22.4897075,22.3068209 C22.5052109,22.2800424 22.5274793,22.2577739 22.5542579,22.2422706 C22.5686337,22.2339082 22.5824458,22.224888 22.5967277,22.2165256 C22.7348485,22.1357202 22.871278,22.0533176 23.0054525,21.9684719 C23.0220834,21.9579484 23.0383384,21.9470491 23.0549693,21.9365256 C23.1803115,21.8564719 23.3037746,21.774633 23.4254525,21.6911967 C23.4472511,21.6762572 23.4693317,21.6615994 23.4910364,21.6465659 C23.6196673,21.5572102 23.7460431,21.4658813 23.8704458,21.3729551 C23.8951572,21.3544451 23.9196807,21.3357471 23.9442981,21.3170491 C24.0709558,21.2209283 24.1961102,21.12368 24.317882,21.0239887 C24.4700968,20.899492 24.6855464,21.0732236 24.5945934,21.2476129 M21.9750901,21.7276531 C21.81658,21.8861632 21.5596001,21.8861632 21.4010901,21.7276531 C21.24258,21.5691431 21.24258,21.3121632 21.4010901,21.1536531 C21.5596001,20.9951431 21.81658,20.9951431 21.9750901,21.1536531 C22.1336001,21.3121632 22.1336001,21.5691431 21.9750901,21.7276531 M20.8937075,20.6462706 C20.7772914,20.7626867 20.6595599,20.8771296 20.5404189,20.9898813 C20.5055599,21.0228612 20.4698552,21.0546196 20.4348082,21.0872236 C20.3500565,21.1661498 20.2653988,21.2450759 20.1793317,21.3221229 C20.134231,21.3624316 20.0882847,21.401331 20.0429022,21.4411699 C19.9657612,21.5087269 19.8889022,21.5766598 19.8108216,21.6427135 C19.7756807,21.6724988 19.7396941,21.7011565 19.7043652,21.7306598 C18.5384189,22.5645525 17.1816404,23.1476665 15.7133317,23.4012639 C15.6487813,23.4073712 15.5844189,23.4144182 15.5196807,23.4197739 C15.423278,23.4278545 15.3264055,23.4337739 15.229627,23.4401632 C15.1637612,23.4445793 15.0981773,23.450029 15.0322176,23.4536934 C14.9252914,23.4595189 14.8178954,23.4631833 14.7106874,23.4671296 C14.6544995,23.4691967 14.5984995,23.4724853 14.5422176,23.4739887 C14.3786337,23.4784988 14.214674,23.4808478 14.0505263,23.4808478 C13.8862847,23.4808478 13.722325,23.4784988 13.5587411,23.4739887 C13.5025532,23.4724853 13.4466471,23.4692907 13.3905532,23.4671296 C13.2832511,23.4631833 13.1757612,23.4595189 13.0687411,23.4536934 C13.0029693,23.450029 12.9374793,23.4445793 12.8718954,23.4402572 C12.774929,23.4337739 12.6778686,23.4278545 12.581184,23.4197739 C12.5165397,23.4144182 12.4521773,23.4073712 12.387627,23.4012639 C10.9195062,23.1476665 9.56282161,22.5646464 8.39687531,21.7307538 C8.36126457,21.7011565 8.32509007,21.6723108 8.28966725,21.6423377 C8.21374779,21.5780692 8.1390498,21.5120155 8.06406994,21.4463377 C8.01652631,21.4047135 7.96841893,21.364029 7.9213451,21.321841 C7.83800282,21.247331 7.7561639,21.1708478 7.67404309,21.0945525 C7.63627128,21.0593176 7.59774779,21.0251162 7.5601639,20.9895994 C7.44121088,20.8769417 7.32347933,20.7625927 7.20715718,20.6462706 C7.09102296,20.5301363 6.97676792,20.4124988 6.86420416,20.2936397 C6.82662027,20.2538947 6.79035182,20.2132102 6.75314376,20.1731833 C6.67900953,20.0933176 6.60468739,20.0137337 6.53215047,19.9327404 C6.48921088,19.8847269 6.44768067,19.83568 6.40530484,19.7872907 C6.3402847,19.7130625 6.27479477,19.6391162 6.21118403,19.5639484 C6.18130484,19.5285256 6.1524592,19.4924451 6.12286188,19.4568343 C5.28887531,18.2907941 4.70585517,16.9340155 4.45225786,15.4657068 C4.44615047,15.4012504 4.43910349,15.3370759 4.43374779,15.2725256 C4.42557329,15.1749014 4.41955987,15.0768075 4.41307665,14.9788075 C4.40884846,14.9141632 4.40349275,14.8497068 4.39982833,14.7849686 C4.39390886,14.6762572 4.39015047,14.5672639 4.3861102,14.4581766 C4.38413705,14.4037739 4.38103638,14.3494652 4.37953302,14.2949686 C4.37502296,14.1312907 4.37267396,13.967331 4.37267396,13.8029954 C4.37267396,13.6387538 4.37502296,13.4747001 4.37953302,13.3111162 C4.38103638,13.2564316 4.38413705,13.2021229 4.3861102,13.1476263 C4.39015047,13.0387269 4.39390886,12.9297337 4.39982833,12.8211162 C4.40349275,12.75619 4.40884846,12.6916397 4.41307665,12.6269014 C4.41955987,12.5290894 4.42557329,12.4310894 4.43374779,12.3335592 C4.43910349,12.2690088 4.44615047,12.2048343 4.45225786,12.140378 C4.70585517,10.6719753 5.28896926,9.31510279 6.1230498,8.14896856 C6.15264712,8.11345178 6.1813988,8.07737124 6.21127799,8.04204238 C6.27535853,7.9664048 6.34113034,7.89189473 6.40662027,7.81719675 C6.44852631,7.76937124 6.48949275,7.72098198 6.53196255,7.67353232 C6.60609678,7.59075379 6.6821102,7.50929071 6.75802967,7.4276397 C6.79354645,7.38949205 6.82812363,7.35059272 6.86401624,7.31263299 C6.97658,7.19367997 7.090929,7.07594843 7.20715718,6.95972024 C7.32347933,6.84349205 7.44121088,6.7290491 7.56025786,6.61648534 C7.59755987,6.58115648 7.63570752,6.54714306 7.67329141,6.51219004 C7.75550618,6.43580077 7.83762698,6.35912963 7.92106322,6.28443165 C7.96841893,6.24196185 8.01690215,6.20099541 8.06472765,6.15918332 C8.13942564,6.09369339 8.21384175,6.02782762 8.28947933,5.96384104 C8.32480819,5.93386789 8.36088873,5.90521017 8.39649947,5.87561285 C9.56253973,5.04153232 10.9195062,4.45832426 12.3879089,4.20472695 C12.4522713,4.19871353 12.5163518,4.19166655 12.5808082,4.18631084 C12.6793719,4.17804238 12.7783115,4.17202896 12.8772511,4.16545178 C12.9409558,4.16122359 13.0044726,4.15596185 13.0683652,4.15239138 C13.1775464,4.14637796 13.2871975,4.14261957 13.3967545,4.13867326 C13.4506874,4.1367001 13.5045263,4.13350547 13.5585532,4.13200212 C13.722231,4.12749205 13.8861907,4.12514306 14.0505263,4.12514306 C14.2147679,4.12514306 14.3787277,4.12749205 14.5424055,4.13200212 C14.5969961,4.13350547 14.6513048,4.1367001 14.7057075,4.13867326 C14.8147008,4.14271353 14.9237881,4.14637796 15.0324055,4.15239138 C15.0972377,4.15596185 15.1616941,4.16131755 15.2264324,4.1656397 C15.3243384,4.17212292 15.4223384,4.17813634 15.5199626,4.18621688 C15.5845129,4.19166655 15.6486874,4.19871353 15.7131438,4.20482091 C17.1814525,4.45841822 18.538325,5.04143836 19.7042713,5.87542494 C19.739882,5.90502225 19.7759626,5.93386789 19.8113854,5.96374708 C19.8871169,6.02782762 19.961627,6.09378735 20.0365129,6.15937124 C20.0842444,6.20118332 20.1326337,6.24205581 20.1799894,6.28452561 C20.2615464,6.35753232 20.341882,6.43260614 20.4223115,6.50730413 C20.4617746,6.54394843 20.5018954,6.57974708 20.5410766,6.61676722 C20.6600297,6.72933098 20.7775733,6.84358601 20.8938015,6.95972024 C21.0100297,7.07604238 21.1244726,7.19377393 21.2371303,7.31282091 C21.2722713,7.349935 21.3060968,7.38798869 21.3408619,7.42538467 C21.417533,7.50778735 21.4942981,7.59009608 21.569184,7.67372024 C21.611278,7.7207001 21.6518686,7.76871353 21.6933988,7.81606923 C21.7592646,7.89133098 21.8255062,7.96621688 21.8898686,8.04232426 C21.9197478,8.07765312 21.9484995,8.11373366 21.9780968,8.14925044 C22.8119894,9.31519675 23.3951035,10.6719753 23.6487008,12.14019 C23.6548082,12.2047404 23.6618552,12.2690088 23.6673048,12.3337471 C23.6752914,12.4303377 23.6812109,12.5273981 23.6876941,12.6242706 C23.6920162,12.6899484 23.6974659,12.7554384 23.7011303,12.8213041 C23.7070498,12.9283243 23.7106203,13.0357202 23.7145666,13.1430223 C23.7167277,13.1991162 23.7199223,13.2550223 23.7215196,13.3112102 C23.7259357,13.474888 23.7283787,13.6387538 23.7283787,13.8029954 C23.7283787,13.967237 23.7259357,14.1311967 23.7215196,14.2947806 C23.7199223,14.3510625 23.7166337,14.4071565 23.7145666,14.4634384 C23.7106203,14.5706464 23.7070498,14.6778545 23.7011303,14.7847806 C23.6974659,14.8508343 23.6920162,14.9165122 23.6876001,14.982378 C23.6812109,15.0790625 23.6752914,15.175841 23.6673048,15.2722437 C23.6618552,15.336982 23.6548082,15.4013444 23.6487008,15.4658947 C23.3951035,16.9340155 22.8121773,18.2906061 21.9783787,19.4564585 C21.9484995,19.4922572 21.9195599,19.5287135 21.8893048,19.5643243 C21.8271035,19.6378947 21.763023,19.7102437 21.6995062,19.7828746 C21.6558149,19.8327672 21.6129693,19.8833176 21.5687142,19.9328343 C21.496929,20.012982 21.4233585,20.0917202 21.349976,20.1706464 C21.3120162,20.2115189 21.2750901,20.2530491 21.2366605,20.2936397 C21.1251303,20.4114652 21.0119089,20.5279753 20.8968082,20.6430759 C20.8957746,20.6441095 20.8947411,20.645237 20.8937075,20.6462706 M20.4228753,23.620378 C20.4104726,23.6350357 20.3982579,23.6499753 20.3857612,23.664633 C20.3563518,23.6991162 20.3264726,23.7331296 20.2966874,23.7671431 C20.2622981,23.8064182 20.2279089,23.8456934 20.1931438,23.8843108 C20.1629827,23.9178545 20.1325397,23.9508343 20.1021907,23.9839082 C20.0671438,24.0218679 20.0320028,24.0598276 19.99658,24.0972236 C19.9657612,24.1297337 19.9347545,24.1617739 19.9036538,24.1937202 C19.8678552,24.2305525 19.8320565,24.2671967 19.795882,24.3033712 C19.7645934,24.3345659 19.7332109,24.3654786 19.7016404,24.3962974 C19.6650901,24.4319082 19.6283518,24.467331 19.5915196,24.502378 C19.5596673,24.5324451 19.5277209,24.5623243 19.4957746,24.5918276 C19.4585666,24.6262169 19.4211706,24.6602303 19.3836807,24.6939618 C19.3513585,24.7229014 19.3189424,24.7515592 19.2863384,24.780029 C19.2484726,24.8131028 19.2104189,24.8458008 19.1722713,24.8781229 C19.1395733,24.905841 19.1067813,24.9332773 19.0738015,24.9604316 C19.035184,24.992378 18.9963787,25.0236665 18.9573854,25.0547672 C18.9244055,25.0811699 18.8913317,25.1073847 18.8581639,25.1331296 C18.8402176,25.1471296 18.8220834,25.1605659 18.8040431,25.174378 C18.7818686,25.1898813 18.7567813,25.2003108 18.7300968,25.2050088 C18.7070766,25.2081095 18.6842444,25.211492 18.6611303,25.2143108 C18.6209156,25.2193847 18.5804189,25.2240827 18.5399223,25.2285927 C18.4883384,25.2344182 18.4367545,25.2398679 18.3848887,25.2448478 C18.3448619,25.2487001 18.304835,25.2521766 18.2647142,25.2555592 C18.211627,25.2599753 18.1584458,25.2640155 18.1050766,25.267586 C18.0654256,25.2702169 18.0256807,25.2726598 17.9858417,25.2748209 C17.9317209,25.2778276 17.8774122,25.2803645 17.8230095,25.2824316 C17.7831706,25.284029 17.7432377,25.2854384 17.7032109,25.2864719 C17.6484324,25.2879753 17.5934659,25.2890088 17.5384055,25.2896665 C17.4982847,25.2900424 17.4581639,25.2904182 17.4178552,25.2905122 C17.3625129,25.2905122 17.3069827,25.2899484 17.2513585,25.2891028 C17.2109558,25.2884451 17.1705532,25.2877874 17.1299626,25.2867538 C17.0742444,25.2852504 17.0182444,25.2831833 16.9622444,25.2808343 C16.9214659,25.2791431 16.8805934,25.2774518 16.839627,25.2752907 C16.783627,25.272378 16.7274391,25.2687135 16.6712511,25.2649551 C16.6300968,25.2621363 16.5889424,25.2595055 16.5476941,25.2562169 C16.527023,25.2546196 16.5062579,25.2525525 16.4854928,25.2507672 C16.3096001,25.2261498 16.2701371,24.9824182 16.435976,24.9064988 C16.51058,24.8722974 16.5846203,24.8355592 16.6590364,24.8001363 C16.7190766,24.7714786 16.7793048,24.7436665 16.8391572,24.7141632 C16.9590498,24.6552504 17.0782847,24.5938008 17.1973317,24.5315994 C17.2389558,24.5098947 17.2807679,24.4894115 17.3222042,24.467237 C17.4817478,24.3822035 17.6405397,24.2942572 17.798486,24.2033981 C17.8399223,24.1795323 17.8808887,24.1541632 17.922231,24.1299216 C18.0230498,24.0707269 18.1240565,24.0120961 18.2242176,23.9505525 C18.2398149,23.9409686 18.2568216,23.9339216 18.274674,23.9296934 C18.391278,23.9017874 18.5065666,23.8713444 18.6219491,23.8411833 C18.6656404,23.8298142 18.7098954,23.8193847 18.7534928,23.8076397 C18.9301371,23.7600021 19.1053719,23.7097337 19.2791035,23.6568343 C19.3205397,23.6442437 19.3612243,23.6302437 19.4023787,23.6173712 C19.5341102,23.5761229 19.6653719,23.5341229 19.7953183,23.4897739 C19.8568619,23.4688209 19.9174659,23.4465525 19.9786337,23.4248478 C20.0573719,23.3969417 20.1368619,23.3701632 20.2149424,23.3411296 C20.3861371,23.2775189 20.530835,23.4784988 20.4228753,23.620378 M13.6446203,24.6042303 C13.6446203,24.3801363 13.8263384,24.1983243 14.0505263,24.1983243 C14.2747142,24.1983243 14.4564324,24.3801363 14.4564324,24.6042303 C14.4564324,24.8284182 14.2747142,25.0101363 14.0505263,25.0101363 C13.8263384,25.0101363 13.6446203,24.8284182 13.6446203,24.6042303 M16.2420431,26.522982 C15.5256941,26.7481095 14.7897075,26.8633981 14.0505263,26.8633981 C13.3112511,26.8633981 12.5752646,26.7481095 11.8589156,26.522982 C11.6703384,26.4637874 11.701627,26.1886733 11.8982847,26.1690357 C11.9164189,26.1672504 11.9346471,26.1649014 11.9527813,26.1630223 C11.9754256,26.1606733 11.9980699,26.1579484 12.0207142,26.1555055 C12.149627,26.1413176 12.2788216,26.1257202 12.4082981,26.107492 C12.4115867,26.1070223 12.4149693,26.1066464 12.4183518,26.1061766 C12.5489558,26.0876665 12.6799357,26.0665256 12.8109156,26.0439753 C12.8361907,26.0396531 12.8613719,26.0354249 12.8866471,26.0309149 C13.0133988,26.0083645 13.1403384,25.983935 13.267278,25.9576263 C13.2915196,25.9525525 13.3157612,25.9471967 13.3400028,25.942029 C13.4700431,25.9143108 13.6001773,25.8850894 13.7303115,25.853331 C13.7328485,25.8527672 13.7353854,25.8522035 13.7379223,25.8515457 C13.8270901,25.8297471 13.9161639,25.8071028 14.0051438,25.7834249 C14.034835,25.7755323 14.0661236,25.7755323 14.0958149,25.7834249 C14.1848887,25.8071028 14.2739626,25.829841 14.3631303,25.8516397 C14.3654793,25.8522035 14.3679223,25.8526733 14.3702713,25.853331 C14.5006874,25.8850894 14.6310095,25.9143108 14.7613317,25.9421229 C14.7853854,25.9472907 14.8093451,25.9525525 14.8333988,25.9575323 C14.9605263,25.983935 15.0876538,26.0083645 15.2145934,26.0310088 C15.2396807,26.0354249 15.264674,26.0396531 15.2896673,26.0439753 C15.4207411,26.0665256 15.5518149,26.0876665 15.6825129,26.1061766 C15.6859894,26.1066464 15.6894659,26.1070223 15.6929424,26.107492 C15.822325,26.1257202 15.9513317,26.1413176 16.0800565,26.1555055 C16.1027948,26.1579484 16.125533,26.1606733 16.1482713,26.1630223 C16.1664055,26.1649014 16.1845397,26.1672504 16.202674,26.1690357 C16.3993317,26.1886733 16.4306203,26.4637874 16.2420431,26.522982 M11.6131169,25.2511431 C11.596486,25.2524585 11.5797612,25.2541498 11.5631303,25.2554652 C11.5110766,25.2595994 11.4592109,25.262982 11.4073451,25.2664585 C11.3626203,25.2693712 11.3178954,25.272284 11.2732646,25.274633 C11.2207411,25.2774518 11.1683115,25.2797068 11.115976,25.28168 C11.0722847,25.2834652 11.0285934,25.2851565 10.9850901,25.286378 C10.9323787,25.2877874 10.8799491,25.288633 10.8275196,25.2893847 C10.78458,25.2899484 10.7416404,25.2904182 10.6987948,25.2904182 C10.6463652,25.2905122 10.5941236,25.2900424 10.541976,25.2892907 C10.4992243,25.2887269 10.4566605,25.2879753 10.4140968,25.2869417 C10.3627008,25.2856263 10.3114928,25.283841 10.2603787,25.2817739 C10.2170632,25.2799887 10.1739357,25.2780155 10.1308082,25.2756665 C10.0811035,25.2730357 10.0315867,25.270029 9.9821639,25.2666464 C9.93762698,25.2635457 9.89318403,25.2601632 9.84883504,25.2565927 C9.80176121,25.2526464 9.75468739,25.2486061 9.70789544,25.2440021 C9.66119745,25.239492 9.61478135,25.2346061 9.56836524,25.2294384 C9.52448604,25.2245525 9.48070081,25.2194786 9.43700953,25.214029 C9.41502296,25.2112102 9.39313034,25.2080155 9.37114376,25.2051028 C9.34436524,25.2003108 9.31918403,25.1898813 9.29691557,25.174284 C9.27896926,25.1605659 9.260929,25.1471296 9.24298269,25.1333176 C9.20962698,25.1073847 9.1764592,25.080982 9.14329141,25.0545793 C9.10448604,25.0235726 9.06577463,24.992378 9.0273451,24.9606196 C8.99427128,24.9333712 8.96129141,24.9057471 8.92849947,24.877841 C8.89044577,24.8457068 8.85258,24.8131967 8.81490215,24.7802169 C8.7821102,24.7516531 8.74950618,24.7227135 8.71690215,24.693492 C8.6796941,24.6601363 8.64267396,24.6264048 8.60574779,24.5922974 C8.57333168,24.5623243 8.54110349,24.5322572 8.50896926,24.5017202 C8.47251289,24.467237 8.43624443,24.432284 8.4001639,24.3970491 C8.36812363,24.3657605 8.33617732,24.3344719 8.30451289,24.3027135 C8.26880819,24.2670088 8.23338537,24.2308343 8.19805651,24.1944719 C8.16658,24.1620558 8.13519745,24.1296397 8.10400282,24.0966598 C8.06895584,24.0597337 8.0342847,24.0223377 7.99961356,23.9847538 C7.96879477,23.9512102 7.93788202,23.9177605 7.9073451,23.8837471 C7.8730498,23.8455994 7.83913034,23.806982 7.80530484,23.7682706 C7.77495584,23.7336934 7.74470081,23.6991162 7.71472765,23.6640692 C7.70241893,23.6496934 7.69039208,23.6349417 7.67827128,23.6205659 C7.57002967,23.4785927 7.71482161,23.2775189 7.8861102,23.3412236 C7.96400282,23.3701632 8.0433988,23.3969417 8.12204309,23.4247538 C8.18330484,23.4464585 8.24409678,23.4688209 8.30564041,23.4897739 C8.43586859,23.5342169 8.56731826,23.5763108 8.69933168,23.6175592 C8.74020416,23.6304316 8.78060685,23.6442437 8.82176121,23.6567404 C8.99558671,23.7097337 9.17091557,23.7600961 9.34784175,23.8077337 C9.39031155,23.8191967 9.43362698,23.8293444 9.47637866,23.8405256 C9.59260685,23.8708746 9.70874108,23.9015994 9.8262847,23.9296934 C9.84413705,23.9339216 9.86114376,23.9409686 9.87674108,23.9505525 C9.97953302,24.0136934 10.0830766,24.0739216 10.1865263,24.1345256 C10.2250498,24.1570759 10.2631035,24.1807538 10.301627,24.2029283 C10.4601371,24.2940692 10.6194928,24.3822974 10.7796001,24.4677068 C10.8187813,24.4885659 10.8584324,24.5080155 10.8977075,24.5285927 C11.0191035,24.5920155 11.1406874,24.6546867 11.262929,24.7147269 C11.321278,24.7433847 11.3799089,24.770539 11.4384458,24.7984451 C11.5138954,24.8344316 11.5890632,24.8717337 11.6647948,24.9064048 C11.8313854,24.9827001 11.7909827,25.2282169 11.6131169,25.2511431 M6.12586859,21.1536531 C6.28437866,20.9951431 6.54135853,20.9951431 6.69986859,21.1536531 C6.85847262,21.3121632 6.85847262,21.5691431 6.69986859,21.7276531 C6.54135853,21.8861632 6.28437866,21.8861632 6.12586859,21.7276531 C5.96735853,21.5691431 5.96735853,21.3121632 6.12586859,21.1536531 M6.60590886,24.3470625 C5.94020416,23.9996934 5.3381102,23.5609014 4.81541222,23.0381095 C4.29262027,22.5154115 3.85373437,21.9133176 3.50636524,21.2476129 C3.41541222,21.0732236 3.63086188,20.899492 3.78307665,21.0239887 C3.78448604,21.0252102 3.78608336,21.0263377 3.78749275,21.0274652 C3.90729141,21.1253712 4.03019074,21.2210223 4.15468739,21.3155457 C4.18043235,21.3350894 4.20608336,21.354633 4.23201624,21.3740827 C4.35566725,21.4664451 4.48119745,21.5572102 4.60917061,21.6460021 C4.63153302,21.6615055 4.65436524,21.6767269 4.67691557,21.6921363 C4.79802967,21.7751028 4.92083504,21.8565659 5.04561356,21.9362437 C5.06233839,21.9469551 5.07878135,21.9579484 5.09560014,21.9685659 C5.22986859,22.0535055 5.36658,22.1360021 5.50479477,22.2168075 C5.51898269,22.2250759 5.53251289,22.2340021 5.54670081,22.2422706 C5.57347933,22.2577739 5.59574779,22.2800424 5.61125114,22.3068209 C5.6199894,22.3218545 5.62938537,22.3362303 5.63821759,22.3511699 C5.71827128,22.4879753 5.79982833,22.6231833 5.88382833,22.7561363 C5.89585517,22.7750223 5.9081639,22.7935323 5.92019074,22.8123243 C5.99817732,22.9344719 6.07794913,23.0546464 6.1592243,23.1733176 C6.17576121,23.1974652 6.19201624,23.2218947 6.20864712,23.2459484 C6.29678135,23.372888 6.38688873,23.4974786 6.47849947,23.62019 C6.49860685,23.6470625 6.51890215,23.6736531 6.53910349,23.7003377 C6.63287531,23.8237068 6.72768067,23.9456665 6.82483504,24.0644316 C6.82643235,24.0664048 6.82793571,24.0684719 6.82943906,24.0703511 C6.95402967,24.2225659 6.78029812,24.4381095 6.60590886,24.3470625 M3.35236524,19.3453041 C3.32126457,19.3125122 3.29053973,19.2796263 3.26009678,19.2465525 C3.22683504,19.2105659 3.19385517,19.1743914 3.1613451,19.1381229 C3.13109007,19.1044853 3.10121088,19.0706598 3.07161356,19.0367404 C3.03994913,19.0004719 3.00866054,18.9640155 2.97765383,18.9274652 C2.94843235,18.892982 2.9193988,18.8584988 2.89083504,18.8237337 C2.86076792,18.7872773 2.83126457,18.750633 2.80185517,18.7138947 C2.77357329,18.6785659 2.74547933,18.6431431 2.71785517,18.6075323 C2.70488873,18.5908075 2.69229812,18.5738947 2.67942564,18.5570759 C2.66373437,18.5347135 2.65321088,18.5092504 2.64841893,18.482284 C2.64550618,18.4604853 2.64231155,18.4388746 2.63958671,18.4170759 C2.63413705,18.3739484 2.62925114,18.3307269 2.62436524,18.2874115 C2.61891557,18.2390223 2.61374779,18.190539 2.6090498,18.1418679 C2.60491557,18.0985525 2.60115718,18.0551431 2.59749275,18.0116397 C2.59345249,17.9623108 2.5896941,17.912888 2.58631155,17.8632773 C2.5833988,17.8197739 2.58076792,17.7761766 2.57832497,17.7324853 C2.57560014,17.6824988 2.57325114,17.6324182 2.57127799,17.5821498 C2.56958671,17.5381766 2.56808336,17.4941095 2.56686188,17.4499484 C2.56545249,17.399492 2.56460685,17.3489417 2.56394913,17.2982974 C2.56338537,17.2539484 2.56300953,17.2095055 2.56300953,17.1649686 C2.56310349,17.1140424 2.56357329,17.0630223 2.56432497,17.0119082 C2.56498269,16.9671833 2.56573437,16.9223645 2.56695584,16.8774518 C2.56827128,16.8261498 2.57024443,16.7747538 2.57231155,16.7232639 C2.57419074,16.6781632 2.57606994,16.6330625 2.57841893,16.5877739 C2.58114376,16.5360961 2.58452631,16.4844182 2.58800282,16.4326464 C2.59100953,16.3872639 2.59401624,16.3418813 2.59758671,16.2964048 C2.59909007,16.277331 2.60096926,16.2581632 2.60256658,16.2390894 C2.62652631,16.0623511 2.87100953,16.0225122 2.94711692,16.188633 C2.98150618,16.2638008 3.01843235,16.3383108 3.05413705,16.4131028 C3.08241893,16.4723914 3.10985517,16.5318679 3.13898269,16.5909686 C3.19874108,16.7125525 3.26103638,16.8334786 3.32408336,16.9542169 C3.34494242,16.9940558 3.36467396,17.0342706 3.3858149,17.0740155 C3.4712243,17.2341229 3.55945249,17.3934786 3.65059343,17.5518947 C3.67267396,17.5903243 3.69625786,17.628284 3.71871423,17.6666196 C3.77941222,17.7701632 3.83973437,17.8738947 3.90287531,17.9766867 C3.9124592,17.992284 3.91950618,18.0093847 3.92382833,18.027237 C3.9521102,18.1454384 3.982929,18.2623243 4.01355987,18.3793981 C4.0244592,18.4213041 4.03441893,18.4638679 4.0456941,18.50568 C4.09333168,18.6823243 4.14360014,18.8574652 4.19649947,19.0311028 C4.20965383,19.0743243 4.22421759,19.1167001 4.23765383,19.1596397 C4.27833839,19.289586 4.31977463,19.4190625 4.36346591,19.5471296 C4.38479477,19.6097068 4.40743906,19.6714384 4.4295196,19.7336397 C4.45714376,19.8115323 4.48364041,19.8902706 4.51239208,19.9675055 C4.57600282,20.1387001 4.37521088,20.2833041 4.23333168,20.1755323 C4.21839208,20.1629417 4.20317061,20.150539 4.18832497,20.1378545 C4.15421759,20.1087269 4.12067396,20.0792236 4.08703638,20.0498142 C4.04747933,20.015237 4.00792229,19.9805659 3.96902296,19.9455189 C3.93557329,19.9154518 3.90259343,19.8851028 3.86970752,19.8547538 C3.83165383,19.8197068 3.7936941,19.7845659 3.75629812,19.7491431 C3.7236941,19.7182303 3.69155987,19.6870357 3.65942564,19.655841 C3.62287531,19.6204182 3.58660685,19.5848075 3.55071423,19.5490088 C3.51886188,19.5171565 3.48738537,19.4851162 3.45600282,19.452982 C3.42114376,19.4172773 3.38656658,19.3813847 3.35236524,19.3453041 M3.65519745,13.8030894 C3.65519745,14.0272773 3.47347933,14.2089954 3.24929141,14.2089954 C3.02510349,14.2089954 2.84338537,14.0272773 2.84338537,13.8030894 C2.84338537,13.5789014 3.02510349,13.3971833 3.24929141,13.3971833 C3.47347933,13.3971833 3.65519745,13.5789014 3.65519745,13.8030894 M2.56394913,10.308633 C2.56460685,10.2574249 2.56554645,10.2063108 2.56686188,10.1552907 C2.56808336,10.1116934 2.56958671,10.068284 2.57127799,10.0248746 C2.57325114,9.97394843 2.57560014,9.92311621 2.57841893,9.87247192 C2.58076792,9.82962628 2.58330484,9.7868746 2.58621759,9.74431084 C2.58960014,9.69347863 2.59345249,9.64283433 2.59768067,9.592284 C2.60115718,9.550284 2.60482161,9.508284 2.60886188,9.46637796 C2.61374779,9.41592158 2.61910349,9.36555916 2.62474108,9.31538467 C2.6293451,9.27413634 2.63404309,9.23288802 2.63921088,9.19182762 C2.64212363,9.16890145 2.64541222,9.14625715 2.64851289,9.12342494 C2.65321088,9.09664641 2.66364041,9.0714652 2.67933168,9.04919675 C2.69258,9.0318142 2.70564041,9.01433769 2.71907665,8.9970491 C2.74585517,8.96256587 2.77310349,8.92817661 2.80044577,8.89388131 C2.83051289,8.85629742 2.86086188,8.81871353 2.89158671,8.78141151 C2.91977463,8.74721017 2.94824443,8.71329071 2.97699611,8.67937124 C3.00837866,8.64235111 3.04004309,8.60542494 3.07208336,8.56868668 C3.1013988,8.53514306 3.13099611,8.50178735 3.16087531,8.46843165 C3.19366725,8.43188131 3.22683504,8.39551889 3.2602847,8.35925044 C3.29072765,8.32636453 3.32135853,8.29347863 3.35227128,8.26078064 C3.38647262,8.22479406 3.4210498,8.18899541 3.4558149,8.15329071 C3.48738537,8.12096856 3.5190498,8.08874037 3.55109007,8.0567001 C3.58660685,8.02127728 3.62259343,7.98604238 3.65867396,7.95090145 C3.69127799,7.91933098 3.72378806,7.88776051 3.75686188,7.85647192 C3.7936941,7.82151889 3.83109007,7.78694171 3.86858,7.75236453 C3.90212363,7.72145178 3.93566725,7.69044507 3.96977463,7.6598142 C4.00792229,7.62551889 4.04653973,7.59159943 4.0853451,7.55767997 C4.11982833,7.52751889 4.15431155,7.49726386 4.18935853,7.46738467 C4.20373437,7.45507594 4.21858,7.44295514 4.2330498,7.43074037 C4.374929,7.32259272 4.57600282,7.46729071 4.51229812,7.6385793 C4.48373437,7.71543836 4.45742564,7.79370681 4.42989544,7.87122359 C4.40772094,7.93389473 4.38479477,7.99619004 4.36327799,8.05933098 C4.31996255,8.18655245 4.27890215,8.31508936 4.23840551,8.44400212 C4.22468739,8.48788131 4.20984175,8.53119675 4.19640551,8.57526386 C4.14360014,8.74871353 4.09333168,8.92376051 4.04578806,9.10021688 C4.03451289,9.141935 4.02455316,9.18449876 4.01365383,9.2264048 C3.98302296,9.34347863 3.9521102,9.46045849 3.92382833,9.57884775 C3.91950618,9.59660614 3.9124592,9.61370681 3.90287531,9.62930413 C3.83973437,9.73219004 3.77931826,9.83592158 3.71862027,9.93955916 C3.69625786,9.97780077 3.67267396,10.0157605 3.65059343,10.0540961 C3.55945249,10.2125122 3.4712243,10.3718679 3.38590886,10.5318813 C3.36448604,10.5720021 3.3447545,10.6124048 3.32370752,10.6526196 C3.2607545,10.772982 3.19864712,10.8936263 3.13907665,11.0148343 C3.10985517,11.0742169 3.08223101,11.1339753 3.05376121,11.1935457 C3.01824443,11.2681498 2.98141222,11.3424719 2.94711692,11.4173578 C2.87100953,11.5834786 2.62662027,11.5437337 2.60256658,11.3670894 C2.60096926,11.3478276 2.59909007,11.3285659 2.59758671,11.3093981 C2.59401624,11.2642035 2.59100953,11.2191028 2.58800282,11.1740021 C2.58452631,11.1219484 2.58114376,11.0698947 2.57841893,11.018029 C2.57606994,10.9730223 2.57419074,10.9281095 2.57240551,10.8832907 C2.57024443,10.8315189 2.56827128,10.779841 2.56686188,10.7282572 C2.56573437,10.6836263 2.56498269,10.6390894 2.56432497,10.5946464 C2.56357329,10.5432504 2.56310349,10.4918545 2.56300953,10.4406464 C2.56300953,10.3965793 2.56338537,10.3526061 2.56394913,10.308633 M2.07009678,13.848284 C2.06173437,13.8796665 2.05412363,13.9110491 2.04604309,13.9423377 C2.03683504,13.9782303 2.02753302,14.0141229 2.01860685,14.0500155 C2.00084846,14.121237 1.98374779,14.1924585 1.96721088,14.2637739 C1.96035182,14.2930894 1.95321088,14.3223108 1.94653973,14.3516263 C1.92408336,14.4510357 1.90266054,14.5504451 1.88255316,14.6497605 C1.87879477,14.6682706 1.87550618,14.6867806 1.87184175,14.7052907 C1.85568067,14.7868478 1.84008336,14.8684048 1.8255196,14.9497739 C1.81941222,14.9839753 1.81368067,15.0181766 1.80785517,15.052378 C1.79629812,15.1194652 1.78530484,15.1864585 1.77487531,15.2534518 C1.76933168,15.2894384 1.76378806,15.325331 1.75852631,15.3613176 C1.74837866,15.430378 1.73888873,15.4993444 1.72986859,15.5683108 C1.72582833,15.5995055 1.72141222,15.6307001 1.71755987,15.6618947 C1.70553302,15.7598947 1.69425786,15.8577068 1.68448604,15.955237 C1.66484846,16.1519887 1.38973437,16.1831833 1.33053973,15.9946061 C1.10541222,15.2782572 0.990123627,14.5422706 0.990123627,13.8029954 C0.990123627,13.0638142 1.10541222,12.3277337 1.33053973,11.6113847 C1.38973437,11.4228075 1.66484846,11.4540021 1.68448604,11.6507538 C1.69425786,11.748284 1.70553302,11.8460961 1.71755987,11.9440961 C1.72141222,11.9752907 1.72582833,12.0065793 1.72986859,12.0378679 C1.73888873,12.1067404 1.74837866,12.1757068 1.75852631,12.2447672 C1.76378806,12.2806598 1.76933168,12.3165525 1.77487531,12.352539 C1.78530484,12.4195323 1.79629812,12.4866196 1.80785517,12.5537068 C1.81368067,12.5879082 1.81941222,12.6220155 1.8255196,12.6562169 C1.84017732,12.7377739 1.85568067,12.819331 1.87184175,12.900982 C1.87550618,12.9193981 1.87879477,12.9378142 1.88255316,12.9562303 C1.90266054,13.0555457 1.92408336,13.1549551 1.94653973,13.2543645 C1.95321088,13.28368 1.96035182,13.3129014 1.96721088,13.3422169 C1.98374779,13.4135323 2.00084846,13.4848478 2.01860685,13.5561632 C2.02753302,13.5919618 2.03683504,13.6277605 2.04604309,13.6635592 C2.05412363,13.6949417 2.06173437,13.7263243 2.07009678,13.7577068 C2.0779894,13.7873981 2.0779894,13.8186867 2.07009678,13.848284 M6.69986859,6.45243165 C6.54135853,6.61103567 6.28437866,6.61103567 6.12586859,6.45243165 C5.96735853,6.29392158 5.96735853,6.03694171 6.12586859,5.87843165 C6.28437866,5.71992158 6.54135853,5.71992158 6.69986859,5.87843165 C6.85847262,6.03694171 6.85847262,6.29392158 6.69986859,6.45243165 M3.50636524,6.35847192 C3.85373437,5.69276722 4.29262027,5.09067326 4.81541222,4.56797527 C5.3381102,4.04518332 5.94020416,3.60629742 6.60590886,3.25892829 C6.78029812,3.16788131 6.95402967,3.38342494 6.82953302,3.5356397 C6.82784175,3.53761285 6.82633839,3.53967997 6.82474108,3.54174708 C6.72758671,3.66051218 6.63278135,3.78247192 6.53910349,3.90584104 C6.51890215,3.93243165 6.49860685,3.95892829 6.47859343,3.98570681 C6.38688873,4.10851218 6.29678135,4.23319675 6.20855316,4.3602303 C6.19201624,4.38409608 6.17585517,4.40833769 6.15941222,4.43229742 C6.07804309,4.55125044 5.99808336,4.67170681 5.91990886,4.79413634 C5.90806994,4.81274037 5.89585517,4.83106252 5.88401624,4.84976051 C5.79992229,4.98271353 5.71827128,5.1181095 5.63812363,5.25491487 C5.62938537,5.26985447 5.6199894,5.2842303 5.61125114,5.29926386 C5.59574779,5.32594843 5.57347933,5.34821688 5.54670081,5.3638142 C5.53194913,5.37236453 5.51785517,5.38157259 5.50319745,5.39021688 C5.36592229,5.47055245 5.23015047,5.55248534 5.09672765,5.63676722 C5.07859343,5.64832426 5.06083504,5.66016319 5.04270081,5.67172024 C4.91970752,5.75027057 4.79868739,5.83060614 4.67917061,5.91235111 C4.65549275,5.92860614 4.63162698,5.94448534 4.60804309,5.96083433 C4.48072765,6.04925044 4.35576121,6.13954574 4.23267396,6.23153232 C4.20627128,6.25126386 4.18015047,6.27118332 4.15393571,6.29110279 C4.03000282,6.38515648 3.90766725,6.48043165 3.78833839,6.57786789 C3.78664712,6.57927728 3.78476792,6.58059272 3.78307665,6.58200212 C3.63086188,6.70659272 3.41541222,6.53286118 3.50636524,6.35847192 M7.67808336,3.98570681 C7.69058,3.97095514 7.70288873,3.95582762 7.71538537,3.9411699 C7.74470081,3.9068746 7.77429812,3.87314306 7.80380148,3.83941151 C7.83847262,3.79985447 7.8730498,3.76039138 7.90809678,3.72149205 C7.93797598,3.68813634 7.96823101,3.6553444 7.99848604,3.62255245 C8.03372094,3.58431084 8.06895584,3.54625715 8.10466054,3.50867326 C8.13529141,3.47625715 8.16629812,3.44421688 8.19730484,3.41236453 C8.23300953,3.37553232 8.26880819,3.33898198 8.30488873,3.30290145 C8.33636524,3.27142494 8.36802967,3.24032426 8.39978806,3.20931755 C8.43605651,3.17398869 8.47241893,3.13884775 8.50906322,3.10408265 C8.54119745,3.0736397 8.57342564,3.04357259 8.60584175,3.01359943 C8.64267396,2.97967997 8.67960014,2.94594843 8.71671423,2.91268668 C8.74950618,2.88327728 8.78239208,2.85414977 8.81537195,2.82530413 C8.85267396,2.79279406 8.89006994,2.76065983 8.92765383,2.72880749 C8.96110349,2.70052561 8.99455316,2.67243165 9.0282847,2.64461957 C9.06596255,2.61351889 9.10392229,2.58298198 9.14188202,2.55263299 C9.17589544,2.52538467 9.21000282,2.49832426 9.24429812,2.47173366 C9.26168067,2.45829742 9.27925114,2.44514306 9.29672765,2.43180077 C9.31899611,2.41620346 9.34417732,2.40577393 9.3710498,2.40098198 C9.39341222,2.39806923 9.41568067,2.39478064 9.43813705,2.39196185 C9.48041893,2.38660614 9.52279477,2.38172024 9.56535853,2.37702225 C9.61384175,2.37157259 9.66241893,2.3664048 9.71127799,2.36170681 C9.75515718,2.35747863 9.7992243,2.35362628 9.84338537,2.34996185 C9.89158671,2.34592158 9.93978806,2.34225715 9.98827128,2.33896856 C10.033278,2.33596185 10.0783787,2.33323702 10.1236673,2.33079406 C10.1717746,2.32816319 10.219976,2.32590816 10.2683652,2.323935 C10.3143115,2.32214977 10.3604458,2.32055245 10.406674,2.31933098 C10.4547813,2.31801554 10.5029827,2.3171699 10.551278,2.31660614 C10.597976,2.31594843 10.644674,2.31557259 10.6915599,2.31557259 C10.7401371,2.31566655 10.7889022,2.31613634 10.8376673,2.31679406 C10.8845532,2.31754574 10.931533,2.31829742 10.9787008,2.31951889 C11.0278417,2.32083433 11.0770766,2.32271353 11.1264995,2.32478064 C11.1733854,2.32665983 11.2203652,2.32853903 11.267533,2.33107594 C11.3176136,2.33370681 11.3677881,2.33699541 11.4180565,2.34037796 C11.4648485,2.34347863 11.5115464,2.34648534 11.5584324,2.35024373 C11.5769424,2.35165312 11.5956404,2.35353232 11.6141505,2.35512963 C11.7910766,2.37890145 11.8310095,2.62347863 11.6648887,2.69958601 C11.5901907,2.73378735 11.5160565,2.77061957 11.4417344,2.80604238 C11.3817881,2.83460614 11.3217478,2.86232426 11.2620834,2.89173366 C11.1408753,2.95130413 11.020325,3.01341151 10.8999626,3.07627057 C10.8598417,3.09731755 10.8194391,3.1170491 10.7794122,3.13837796 C10.6193988,3.22369339 10.4601371,3.31192158 10.301627,3.40306252 C10.2630095,3.42533098 10.2248619,3.44900883 10.1862444,3.47155916 C10.0828887,3.53216319 9.9793451,3.59239138 9.87674108,3.65543836 C9.86114376,3.66502225 9.84404309,3.67206923 9.8262847,3.67629742 C9.70695584,3.70486118 9.58894242,3.73596185 9.47083504,3.7668746 C9.43005651,3.77758601 9.38880819,3.78726386 9.34821759,3.79816319 C9.17119745,3.84589473 8.99577463,3.89625715 8.82176121,3.94925044 C8.78004309,3.961935 8.73907665,3.97602896 8.69754645,3.98899541 C8.5662847,4.03014977 8.4353988,4.07205581 8.30592229,4.11612292 C8.24390886,4.13726386 8.18283504,4.15972024 8.12129141,4.18151889 C8.04283504,4.20933098 7.96372094,4.23601554 7.88601624,4.26486118 C7.71482161,4.32847192 7.57021759,4.12758601 7.67808336,3.98570681 M14.4564324,3.00185447 C14.4564324,3.22604238 14.2747142,3.40776051 14.0505263,3.40776051 C13.8263384,3.40776051 13.6446203,3.22604238 13.6446203,3.00185447 C13.6446203,2.77766655 13.8263384,2.59594843 14.0505263,2.59594843 C14.2747142,2.59594843 14.4564324,2.77766655 14.4564324,3.00185447 M11.8589156,1.08300883 C12.5752646,0.857975271 13.3112511,0.74259272 14.0505263,0.74259272 C14.7897075,0.74259272 15.5256941,0.857975271 16.2420431,1.08300883 C16.4306203,1.14229742 16.3993317,1.41741151 16.202674,1.4370491 C16.1047679,1.44682091 16.006674,1.45809608 15.9083921,1.47021688 C15.878325,1.47397527 15.8481639,1.47820346 15.8180968,1.48214977 C15.7480028,1.49126386 15.6778149,1.50084775 15.607533,1.51118332 C15.5723921,1.51635111 15.5371572,1.52180077 15.5020162,1.52725044 C15.4342713,1.53777393 15.3664324,1.54895514 15.2985934,1.56060614 C15.2649558,1.56633769 15.2313183,1.57197527 15.1976807,1.57798869 C15.1155599,1.59274037 15.0333451,1.60833769 14.9511303,1.62468668 C14.933184,1.62825715 14.9153317,1.63135782 14.8974793,1.63502225 C14.797882,1.65522359 14.6983787,1.67664641 14.5987813,1.69919675 C14.5699357,1.70567997 14.5410901,1.71272695 14.5122444,1.71949205 C14.4405532,1.73621688 14.3687679,1.75331755 14.2969827,1.77126386 C14.2613719,1.78019004 14.2258552,1.78930413 14.1902444,1.79851218 C14.1587679,1.80659272 14.1272914,1.81420346 14.0958149,1.82256587 C14.0661236,1.83045849 14.034835,1.83045849 14.0051438,1.82256587 C13.9738552,1.81429742 13.9425666,1.80668668 13.911278,1.79860614 C13.8753854,1.78939809 13.8394928,1.78009608 13.8035062,1.7711699 C13.7321907,1.75331755 13.6609693,1.73631084 13.5896538,1.71967997 C13.5603384,1.71291487 13.5311169,1.70577393 13.5018954,1.69910279 C13.402486,1.67664641 13.3029827,1.65522359 13.2035733,1.63502225 C13.185533,1.63135782 13.1674928,1.62816319 13.1493585,1.62459272 C13.0673317,1.60824373 12.9853048,1.59264641 12.903278,1.57798869 C12.8695464,1.57188131 12.8358149,1.56624373 12.8019894,1.56051218 C12.7344324,1.54895514 12.6669693,1.53777393 12.5995062,1.5273444 C12.5639894,1.52180077 12.5284726,1.51635111 12.4929558,1.51108936 C12.4232377,1.50084775 12.3536136,1.49135782 12.2840834,1.48224373 C12.2534525,1.47820346 12.2227277,1.47397527 12.1920028,1.47021688 C12.0940028,1.45809608 11.9960028,1.44682091 11.8982847,1.4370491 C11.701627,1.41731755 11.6703384,1.14229742 11.8589156,1.08300883 M16.4861505,2.35512963 C16.5057881,2.35353232 16.5255196,2.3514652 16.5451572,2.34996185 C16.5890364,2.34648534 16.6328216,2.34366655 16.6767008,2.34075379 C16.7301639,2.33718332 16.7837209,2.33361285 16.8370901,2.33079406 C16.8804055,2.32853903 16.923533,2.32675379 16.9667545,2.32496856 C17.0204995,2.32280749 17.0741505,2.32074037 17.1276136,2.31933098 C17.1700834,2.31820346 17.2124592,2.31754574 17.2547411,2.31688802 C17.308486,2.31613634 17.362231,2.31557259 17.4156941,2.31557259 C17.4576001,2.31557259 17.4994122,2.31594843 17.5412243,2.31641822 C17.5945934,2.31707594 17.6478686,2.31801554 17.7009558,2.31942494 C17.742674,2.32055245 17.7842981,2.32205581 17.8258283,2.32365312 C17.8783518,2.32572024 17.9306874,2.32816319 17.982929,2.33098198 C18.0247411,2.33333098 18.0664592,2.33586789 18.1079894,2.33859272 C18.1593854,2.34206923 18.2105934,2.34601554 18.2617075,2.35024373 C18.3037075,2.35372024 18.3456136,2.35738467 18.3874256,2.36142494 C18.4372243,2.36621688 18.486835,2.37147863 18.5363518,2.37702225 C18.5790095,2.3818142 18.6216673,2.3867001 18.6640431,2.39205581 C18.6860297,2.3948746 18.7078283,2.39806923 18.7297209,2.40098198 C18.7567813,2.40567997 18.7821505,2.41620346 18.8045129,2.43198869 C18.8213317,2.44486118 18.8383384,2.45745178 18.8550632,2.47051218 C18.89058,2.49804238 18.9259089,2.52604238 18.9611438,2.5542303 C18.997976,2.58373366 19.0348082,2.61342494 19.0713585,2.64358601 C19.1060297,2.67205581 19.1404189,2.70099541 19.1748082,2.73012292 C19.2114525,2.76112963 19.2479089,2.79241822 19.2842713,2.82417661 C19.3180968,2.85377393 19.3519223,2.88365312 19.3855599,2.9138142 C19.4218283,2.94641822 19.4580028,2.97930413 19.4939894,3.01256587 C19.5270632,3.04310279 19.5600431,3.07392158 19.592929,3.10502225 C19.6288216,3.13903567 19.6644324,3.17351889 19.7000431,3.20819004 C19.7323652,3.23976051 19.7646874,3.27151889 19.7968216,3.30365312 C19.8323384,3.3391699 19.8675733,3.37515648 19.9027142,3.41142494 C19.9342847,3.44384104 19.9656673,3.47625715 19.9968619,3.50923702 C20.0320968,3.54635111 20.0669558,3.58402896 20.1017209,3.62170681 C20.1323518,3.6548746 20.1628887,3.68813634 20.1931438,3.72177393 C20.2280028,3.76048534 20.262486,3.79976051 20.2968753,3.83912963 C20.3264726,3.87295514 20.3561639,3.90678064 20.3854793,3.94107594 C20.3980699,3.95582762 20.4103787,3.97095514 20.4229693,3.98580077 C20.5307411,4.12767997 20.3861371,4.32847192 20.2149424,4.26486118 C20.1375196,4.2361095 20.0586874,4.20951889 19.9806068,4.18189473 C19.9185934,4.15990816 19.8569558,4.13726386 19.7944726,4.115935 C19.6668753,4.07252561 19.5379626,4.03127728 19.40858,3.99068668 C19.3649827,3.97706252 19.3221371,3.96231084 19.2783518,3.94896856 C19.1049022,3.89616319 18.9299491,3.84598869 18.7535867,3.79835111 C18.710835,3.78688802 18.6673317,3.77674037 18.624486,3.7654652 C18.5082579,3.73511621 18.3921236,3.70439138 18.274674,3.67629742 C18.2568216,3.67206923 18.2398149,3.66502225 18.2242176,3.65543836 C18.1202981,3.5916397 18.015533,3.53065983 17.9109558,3.46939809 C17.8738417,3.44769339 17.8371035,3.42486118 17.7998954,3.40343836 C17.6409156,3.31201554 17.4810901,3.22341151 17.3204189,3.1378142 C17.2835867,3.11817661 17.2463787,3.09994843 17.2094525,3.08068668 C17.0857075,3.01585447 16.9616807,2.95205581 16.8370901,2.89079406 C16.7798686,2.8627001 16.7222713,2.83601554 16.6648619,2.80867326 C16.5885666,2.77231084 16.5126471,2.73463299 16.4360699,2.69958601 C16.2700431,2.62347863 16.3097881,2.37937124 16.4861505,2.35512963 M21.9750901,6.45243165 C21.81658,6.61103567 21.5596001,6.61103567 21.4010901,6.45243165 C21.24258,6.29392158 21.24258,6.03694171 21.4010901,5.87843165 C21.5596001,5.71992158 21.81658,5.71992158 21.9750901,5.87843165 C22.1336001,6.03694171 22.1336001,6.29392158 21.9750901,6.45243165 M21.4950498,3.25892829 C22.1607545,3.60629742 22.7628485,4.04518332 23.2856404,4.56797527 C23.8083384,5.09067326 24.2471303,5.69267326 24.5944995,6.35847192 C24.6855464,6.53276722 24.4700028,6.70659272 24.3177881,6.58200212 C24.3165666,6.58096856 24.3152511,6.58002896 24.3140297,6.57899541 C24.1941371,6.48099541 24.0710498,6.38525044 23.9464592,6.29063299 C23.9205263,6.27099541 23.8947813,6.25126386 23.8686605,6.23172024 C23.7453854,6.1396397 23.6201371,6.04915648 23.4926337,5.96064641 C23.4693317,5.94448534 23.4456538,5.9287001 23.4221639,5.91263299 C23.3026471,5.83079406 23.1814391,5.75036453 23.0583518,5.6718142 C23.0402176,5.66016319 23.0223652,5.6482303 23.0040431,5.63667326 C22.8709961,5.5525793 22.7355062,5.47074037 22.5985129,5.39059272 C22.5835733,5.38185447 22.5691975,5.37245849 22.5542579,5.3638142 C22.5274793,5.34821688 22.5052109,5.32594843 22.4897075,5.29926386 C22.4814391,5.28498198 22.4725129,5.27135782 22.4641505,5.25707594 C22.3833451,5.11895514 22.3009424,4.98233769 22.2160968,4.84816319 C22.2053854,4.8313444 22.1943921,4.81480749 22.1835867,4.79798869 C22.1040028,4.67330413 22.0226337,4.55049876 21.9396673,4.42947863 C21.9241639,4.40692829 21.9090364,4.38409608 21.8934391,4.3616397 C21.8045532,4.23366655 21.7136941,4.10794843 21.6212377,3.98420346 C21.6020699,3.95855245 21.5827142,3.93318332 21.5633585,3.90772024 C21.4685532,3.78275379 21.3725263,3.65938467 21.2742444,3.53921017 C21.2733048,3.53798869 21.2724592,3.53676722 21.2715196,3.5356397 C21.146929,3.38342494 21.3206605,3.16788131 21.4950498,3.25892829 M26.2904966,8.90916779 C25.9833423,7.02104698 25.1589396,5.36002685 23.8994094,4.10049664 C22.6397852,2.84096644 20.9788591,2.01656376 19.0908322,1.70950336 C17.5386174,0.59166443 15.7812886,0 14,0 C12.2186174,0 10.4611946,0.59166443 8.90916779,1.70950336 C7.02104698,2.01656376 5.36002685,2.84096644 4.10049664,4.10049664 C2.84087248,5.36012081 2.0164698,7.02114094 1.7094094,8.90926174 C0.59157047,10.4612886 0,12.2187114 0,14 C0,15.7813826 0.59157047,17.5387114 1.7094094,19.0909262 C2.0164698,20.9788591 2.84087248,22.6398792 4.10049664,23.8995034 C5.35993289,25.1590336 7.02095302,25.9834362 8.90907383,26.2905906 C10.4611007,27.4084295 12.2186174,28 14,28 C15.7813826,28 17.5387114,27.4084295 19.0909262,26.2905906 C20.9788591,25.9834362 22.6399732,25.1590336 23.8994094,23.8995034 C25.1589396,22.6399732 25.9833423,20.978953 26.2904966,19.0910201 C27.4083356,17.5388054 28,15.7813826 28,14 C28,12.2187114 27.4083356,10.4611946 26.2904966,8.90916779" id="Fill-1"></path>
            </g>
        </g>
    </g>
</svg>
