<?xml version="1.0" encoding="UTF-8"?>
<svg width="284px" height="118px" viewBox="0 0 284 118" version="1.1" xmlns="http://www.w3.org/2000/svg" xmlns:xlink="http://www.w3.org/1999/xlink">
    <!-- Generator: Sketch 47 (45396) - http://www.bohemiancoding.com/sketch -->
    <title>Logo@2x</title>
    <desc>Created with Sketch.</desc>
    <defs>
        <filter x="-3.0%" y="-2.7%" width="106.0%" height="105.4%" filterUnits="objectBoundingBox" id="filter-1">
            <feGaussianBlur stdDeviation="0.216796875" in="SourceGraphic"></feGaussianBlur>
        </filter>
        <filter x="-7.1%" y="-7.2%" width="114.3%" height="114.3%" filterUnits="objectBoundingBox" id="filter-2">
            <feGaussianBlur stdDeviation="1.06734375" in="SourceGraphic"></feGaussianBlur>
        </filter>
        <filter x="-15.8%" y="-15.8%" width="131.5%" height="131.6%" filterUnits="objectBoundingBox" id="filter-3">
            <feGaussianBlur stdDeviation="2.27564062" in="SourceGraphic"></feGaussianBlur>
        </filter>
        <filter x="-3.0%" y="-2.7%" width="106.0%" height="105.4%" filterUnits="objectBoundingBox" id="filter-4">
            <feGaussianBlur stdDeviation="0.216796875" in="SourceGraphic"></feGaussianBlur>
        </filter>
        <filter x="-7.1%" y="-7.2%" width="114.3%" height="114.3%" filterUnits="objectBoundingBox" id="filter-5">
            <feGaussianBlur stdDeviation="1.06734375" in="SourceGraphic"></feGaussianBlur>
        </filter>
        <filter x="-15.8%" y="-15.8%" width="131.5%" height="131.6%" filterUnits="objectBoundingBox" id="filter-6">
            <feGaussianBlur stdDeviation="2.27564062" in="SourceGraphic"></feGaussianBlur>
        </filter>
    </defs>
    <g id="Test-Card-#44" stroke="none" stroke-width="1" fill="none" fill-rule="evenodd">
        <g id="Artboard-1" transform="translate(-342.000000, -210.000000)">
            <g id="Logo" transform="translate(348.000000, 210.000000)">
                <g id="MIxD-text" transform="translate(95.000000, 95.000000)" fill="#FFFFFF">
                    <path d="M5.56180959,17.9601487 L5.56180959,20.7213669 C5.56180959,21.6575348 4.77225289,22.4163811 3.79819822,22.4163811 L1.87516168,22.4163811 C0.90110701,22.4163811 0.111550311,21.6575348 0.111550311,20.7213669 L0.111550311,2.0121019 C0.111550311,1.07638858 0.90110701,0.317542362 1.87516168,0.317542362 L4.94728942,0.317542362 C5.65122014,0.317542362 6.2875016,0.719471697 6.56661392,1.34055255 L9.05165966,6.87299164 C9.67469511,8.25928411 11.7306648,8.22973048 12.3101777,6.8261605 L14.5558491,1.38692901 C14.8226616,0.741295915 15.472189,0.317542362 16.1950426,0.317542362 L19.5018139,0.317542362 C20.4758686,0.317542362 21.2654253,1.07638858 21.2654253,2.0121019 L21.2654253,20.7213669 C21.2654253,21.6575348 20.4758686,22.4163811 19.5018139,22.4163811 L17.4425327,22.4163811 C16.4684781,22.4163811 15.6789214,21.6575348 15.6789214,20.7213669 L15.6789214,17.9956131 C15.6789214,16.149648 13.044385,15.6335962 12.292674,17.3322478 L12.2519898,17.423182 C11.9752429,18.0488096 11.3365961,18.454831 10.6293538,18.454831 L10.6293538,18.454831 C9.93015384,18.454831 9.29718388,18.057903 9.01570621,17.4431876 L8.93906859,17.2767779 C8.16985397,15.5985865 5.56180959,16.1264598 5.56180959,17.9601487" id="Fill-4"></path>
                    <path d="M31.9324357,22.4161992 L29.566604,22.4161992 C28.5925493,22.4161992 27.8029926,21.657353 27.8029926,20.721185 L27.8029926,2.0123747 C27.8029926,1.07620672 28.5925493,0.317360493 29.566604,0.317360493 L31.9324357,0.317360493 C32.9064903,0.317360493 33.696047,1.07620672 33.696047,2.0123747 L33.696047,20.721185 C33.696047,21.657353 32.9064903,22.4161992 31.9324357,22.4161992" id="Fill-6"></path>
                    <path d="M54.9132663,19.7638748 L51.6410292,15.7882299 C51.1618076,15.2062507 51.1504539,14.3878426 51.6121719,13.7931327 L55.1313524,9.2659716 C55.9701085,8.18658218 55.168725,6.64979355 53.7665405,6.64979355 L51.7446319,6.64979355 C51.1542384,6.64979355 50.6054752,6.94351114 50.2956133,7.42682662 L49.2198482,9.10092595 C48.5873513,10.0861984 47.1194097,10.1457604 46.402233,9.21550309 L44.9352376,7.31224948 C44.6140219,6.89531599 44.106416,6.64979355 43.5666411,6.64979355 L41.3380003,6.64979355 C39.9135813,6.64979355 39.1183478,8.22977595 40.0029919,9.30279996 L43.4729729,13.5135099 C43.9692252,14.1154946 43.9630752,14.9684577 43.4578346,15.564077 L39.911689,19.7452333 C39.0043375,20.8146199 39.7962595,22.4164265 41.2315591,22.4164265 L43.0093626,22.4164265 C43.5557605,22.4164265 44.0690433,22.164084 44.3893128,21.7389665 L45.7981204,19.8675398 C46.4698823,18.9754749 47.8484133,18.9622895 48.5376788,19.8420782 L50.0448853,21.764428 C50.3670471,22.1749961 50.8703954,22.4164265 51.4054395,22.4164265 L53.5777848,22.4164265 C55.0012577,22.4164265 55.7964912,20.8368988 54.9132663,19.7638748" id="Fill-8"></path>
                    <path d="M72.5252533,8.36372208 C72.5252533,6.54185461 70.9882433,5.0646279 69.0926449,5.0646279 L69.0770336,5.0646279 C68.1029789,5.0646279 67.3134222,5.82347412 67.3134222,6.75964211 L67.3134222,15.9412722 C67.3134222,16.8774402 68.1029789,17.6362864 69.0770336,17.6362864 L69.0926449,17.6362864 C70.9882433,17.6362864 72.5252533,16.1595144 72.5252533,14.3371922 L72.5252533,8.36372208 Z M73.7514552,0.31740596 C76.2724544,0.31740596 78.4183077,2.31432184 78.4183077,4.80273729 L78.4183077,17.898177 C78.4183077,20.4188741 76.2724544,22.4162447 73.7514552,22.4162447 L63.149918,22.4162447 C62.1758633,22.4162447 61.3863066,21.6573984 61.3863066,20.7212305 L61.3863066,2.01242017 C61.3863066,1.07625218 62.1758633,0.31740596 63.149918,0.31740596 L73.7514552,0.31740596 Z" id="Fill-10"></path>
                </g>
                <path d="M170.712089,45.5937453 C170.684415,45.3181767 170.652482,45.0418124 170.618421,44.7651828 C170.607511,44.6776586 170.59527,44.5898692 170.583562,44.502345 C170.558016,44.3074047 170.531406,44.1121992 170.5024,43.9169937 C170.487499,43.8154126 170.471799,43.7140967 170.456099,43.6125156 C170.426561,43.423145 170.395161,43.2335093 170.362696,43.0438735 C170.346198,42.9481273 170.330232,42.8523811 170.312935,42.756635 C170.270891,42.5237675 170.226452,42.2906349 170.18015,42.0575022 C170.170304,42.0084356 170.161523,41.959369 170.151411,41.9103024 C170.094199,41.6281032 170.032995,41.3461691 169.96913,41.0639699 C169.951301,40.986259 169.932408,40.9082829 169.914047,40.830572 C169.865882,40.6234314 169.816121,40.416556 169.764231,40.2096806 C169.740282,40.113404 169.715268,40.0171274 169.690255,39.9208507 C169.666571,39.8293481 169.644485,39.7378456 169.620003,39.646343 C169.597917,39.5627972 169.597917,39.4744773 169.620003,39.3906662 C169.644485,39.2996941 169.666571,39.2084567 169.689988,39.1172194 C169.715268,39.0206775 169.740016,38.9238705 169.764497,38.8273286 C169.816121,38.6207184 169.865616,38.4141083 169.914047,38.2074981 C169.932142,38.1292568 169.951301,38.0510154 169.96913,37.9727741 C170.032995,37.6908401 170.094199,37.4091713 170.151411,37.1275025 C170.161789,37.077375 170.17057,37.0269822 170.180682,36.9765895 C170.226984,36.7445178 170.271157,36.5127112 170.312935,36.2809047 C170.329966,36.1851585 170.346198,36.0894124 170.362696,35.9936662 C170.395161,35.8037652 170.426561,35.6138642 170.456099,35.4242284 C170.472065,35.3229125 170.487499,35.2215966 170.5024,35.1202807 C170.531406,34.9250752 170.558016,34.7298697 170.583562,34.5351947 C170.59527,34.4474052 170.607511,34.3596158 170.618421,34.2720916 C170.652482,33.9954621 170.684415,33.7190978 170.712089,33.4435291 C170.767971,32.8881483 171.546854,32.8000936 171.714765,33.3323999 C172.352081,35.3544743 172.678856,37.4319806 172.678856,39.5185046 C172.678856,41.6050286 172.352081,43.6828002 171.714765,45.7048745 C171.546854,46.2371808 170.767971,46.148861 170.712089,45.5937453 M168.220302,30.4637278 C168.21844,30.5883835 168.216311,30.7130392 168.213118,30.8379601 C168.209126,30.9851599 168.203538,31.1328901 168.197418,31.2808856 C168.192362,31.405276 168.187306,31.5296665 168.180653,31.6543222 C168.17267,31.8044395 168.162824,31.9550872 168.152712,32.1054697 C168.144463,32.2287992 168.136214,32.3521288 168.126634,32.4759888 C168.122111,32.531686 168.116522,32.5876485 168.111733,32.6436109 C168.043078,33.141438 167.351743,33.2533629 167.136466,32.7847106 C167.038806,32.5720002 166.933695,32.3611465 166.83231,32.1492318 C166.752479,31.9824053 166.675043,31.8150485 166.592818,31.6487525 C166.423576,31.3058167 166.247416,30.9647375 166.068595,30.6239236 C166.00952,30.511203 165.953638,30.3974216 165.893499,30.2849662 C165.651878,29.8332883 165.402273,29.3839974 165.144154,28.9370935 C165.080555,28.8267599 165.012699,28.7177525 164.948036,28.6076842 C164.776932,28.3169977 164.607158,28.0257808 164.429135,27.7372162 C164.402259,27.6931889 164.382035,27.6449179 164.37006,27.5947904 C164.29156,27.2677682 164.205875,26.9444591 164.120988,26.6208847 C164.087991,26.4949029 164.057922,26.3670645 164.024127,26.241348 C163.889479,25.7443166 163.747646,25.2515288 163.598362,24.7629846 C163.559777,24.6364723 163.516935,24.5120819 163.477285,24.3861 C163.363393,24.0240681 163.247639,23.6630971 163.125497,23.3061044 C163.064294,23.1273428 162.999365,22.9509683 162.936298,22.7732676 C162.858596,22.5549876 162.784088,22.3345857 162.703458,22.117897 C162.523041,21.6343921 163.093033,21.2256806 163.494848,21.5314848 C163.53503,21.5654336 163.576276,21.5991172 163.616191,21.633066 C163.717044,21.7187336 163.8163,21.8054621 163.915557,21.8921907 C164.023861,21.9866107 164.132165,22.081296 164.238872,22.1770422 C164.335999,22.2643011 164.432062,22.3523558 164.527859,22.4404104 C164.633236,22.5372175 164.738613,22.6342898 164.842127,22.7321578 C164.936061,22.8210081 165.028931,22.9103889 165.121269,23.0000349 C165.223452,23.0989638 165.325104,23.1981579 165.425424,23.2981477 C165.516165,23.3885893 165.605842,23.4792962 165.694987,23.5705336 C165.793977,23.6715843 165.892169,23.7729002 165.98903,23.8750117 C166.076312,23.9665143 166.162529,24.0585473 166.248214,24.1511108 C166.343745,24.2542833 166.438212,24.357721 166.53188,24.4616891 C166.615702,24.5547831 166.69846,24.647877 166.78042,24.7417666 C166.872758,24.8467956 166.963765,24.9526203 167.053974,25.0587103 C167.133538,25.1523347 167.212571,25.2462243 167.290539,25.3406443 C167.380216,25.4485908 167.46803,25.557333 167.555311,25.6663405 C167.630619,25.7599648 167.705393,25.8538544 167.778838,25.9482745 C167.818221,25.9986672 167.856274,26.0498556 167.895125,26.1005136 C167.939032,26.1631066 167.968569,26.2339217 167.981874,26.3095107 C167.990656,26.3736952 167.999969,26.4373491 168.008219,26.5017988 C168.022854,26.6184977 168.036159,26.7357271 168.049464,26.8529565 C168.065165,26.9932604 168.080332,27.1340948 168.093904,27.2754597 C168.105612,27.3950761 168.11599,27.5149578 168.126102,27.6351046 C168.137811,27.7764695 168.148455,27.9180995 168.158301,28.0599948 C168.16655,28.1814678 168.173734,28.303206 168.180387,28.4252095 C168.18837,28.56737 168.195023,28.7097958 168.200611,28.852752 C168.205667,28.9760815 168.209658,29.0996763 168.213118,29.2235363 C168.217109,29.3664925 168.219504,29.5097139 168.221367,29.6534658 C168.222964,29.7781215 168.224028,29.9027772 168.224028,30.0279633 C168.224028,30.1727761 168.222431,30.3181193 168.220302,30.4637278 M165.130848,39.5187698 C165.130848,38.8859433 165.645757,38.3729984 166.280413,38.3729984 C166.915334,38.3729984 167.429977,38.8859433 167.429977,39.5187698 C167.429977,40.1515964 166.915334,40.6645412 166.280413,40.6645412 C165.645757,40.6645412 165.130848,40.1515964 165.130848,39.5187698 M168.221367,49.3838086 C168.219504,49.5272953 168.216843,49.6705167 168.213118,49.8134729 C168.209658,49.9378634 168.205401,50.0617234 168.200611,50.1855834 C168.195023,50.3277439 168.18837,50.469374 168.180653,50.6107388 C168.174001,50.7335379 168.166284,50.8563371 168.158034,50.9788709 C168.148455,51.1197053 168.137811,51.2602745 168.126102,51.4005785 C168.11599,51.521521 168.105612,51.6421983 168.093904,51.7626104 C168.080332,51.9031796 168.065431,52.0434835 168.049731,52.183257 C168.036425,52.3012821 168.022588,52.4193072 168.007952,52.537067 C167.999969,52.600721 167.990656,52.6641097 167.98214,52.7277637 C167.968569,52.8030876 167.939032,52.8741678 167.895125,52.9367609 C167.856008,52.9876841 167.817955,53.0388725 167.778572,53.0892652 C167.705393,53.1831548 167.631151,53.2765139 167.556376,53.3698731 C167.468296,53.4796762 167.379684,53.589214 167.289475,53.6982215 C167.212571,53.7913154 167.134603,53.8838789 167.055836,53.9761771 C166.964563,54.0841236 166.871959,54.1912745 166.778291,54.2981601 C166.697928,54.3901931 166.616501,54.4816957 166.534275,54.5729331 C166.439276,54.6787578 166.342947,54.7840521 166.245553,54.8890811 C166.161731,54.9795228 166.07711,55.0699645 165.991425,55.1598757 C165.892701,55.2638438 165.792646,55.3670163 165.691793,55.4699236 C165.604512,55.5590391 165.516964,55.6481547 165.428351,55.7364745 C165.325636,55.8385861 165.221856,55.9401672 165.117277,56.0412179 C165.027068,56.1284769 164.936593,56.2157359 164.845054,56.3024644 C164.738879,56.4027194 164.631107,56.5021787 164.52307,56.6013728 C164.429667,56.6870404 164.336532,56.7727081 164.242065,56.85758 C164.132165,56.9559785 164.020667,57.0535812 163.908904,57.1509187 C163.812841,57.2347298 163.717044,57.3182756 163.61965,57.401291 C163.578138,57.4365659 163.535828,57.4713104 163.49405,57.5063201 C163.092235,57.8110634 162.523041,57.4026171 162.703458,56.9193774 C162.785684,56.6989756 162.861523,56.4743301 162.940556,56.2520717 C163.00176,56.0796755 163.064826,55.9086055 163.124167,55.7351484 C163.249501,55.3683424 163.368715,54.9978233 163.485535,54.625978 C163.522257,54.5092791 163.56164,54.394702 163.597298,54.2777378 C163.747114,53.787337 163.889745,53.2926926 164.024659,52.7940699 C164.057656,52.6710056 164.087193,52.5460847 164.119392,52.4227551 C164.204811,52.097059 164.291028,51.7716281 164.37006,51.442484 C164.382035,51.3920913 164.402259,51.3438204 164.429401,51.299793 C164.604497,51.0157372 164.77161,50.7290291 164.940053,50.4428515 C165.007643,50.3280091 165.078426,50.2142277 165.144686,50.0991201 C165.402539,49.6524814 165.652144,49.2034557 165.893499,48.752043 C165.953106,48.6406486 166.00819,48.5284584 166.066732,48.4167988 C166.246352,48.0743935 166.423576,47.7317229 166.593616,47.3869306 C166.674511,47.2227564 166.751149,47.0575213 166.829915,46.8930819 C166.932099,46.6795759 167.038008,46.4668656 167.136466,46.2525639 C167.351743,45.7839115 168.043078,45.8958364 168.111733,46.3939287 C168.116522,46.449626 168.122111,46.5053232 168.126634,46.5610204 C168.136214,46.6848804 168.144463,46.8084752 168.152712,46.93207 C168.162824,47.0824525 168.17267,47.232835 168.180653,47.382687 C168.187306,47.5076079 168.192362,47.6319984 168.197418,47.7566541 C168.203538,47.9043843 168.209126,48.0518494 168.213118,48.1990492 C168.216311,48.3242353 168.21844,48.448891 168.220302,48.5732814 C168.222431,48.7188899 168.224028,48.8644983 168.224028,49.0093111 C168.224028,49.1344972 168.222964,49.2591529 168.221367,49.3838086 M165.552355,60.532801 C164.568573,62.4119191 163.325607,64.11148 161.845277,65.586926 C160.36468,67.0626371 158.659493,68.3015024 156.774155,69.2820387 C156.280268,69.5387764 155.788244,68.9306158 156.14083,68.5009515 C156.14083,68.5009515 156.141096,68.5006863 156.141096,68.5004211 C156.423431,68.1566897 156.698848,67.8039406 156.970805,67.4464175 C157.023759,67.3769286 157.076714,67.3077049 157.129402,67.2376855 C157.392578,66.886793 157.650964,66.5300656 157.903761,66.1669727 C157.946604,66.1057058 157.988382,66.0433779 158.030692,65.9815806 C158.266992,65.6378491 158.498767,65.2893437 158.725487,64.9355337 C158.75529,64.8888541 158.785892,64.8432354 158.815696,64.7965559 C159.055987,64.4178148 159.289359,64.032443 159.518207,63.6425625 C159.54189,63.6019831 159.567436,63.5632602 159.59112,63.5226808 C159.635026,63.4470918 159.698093,63.3842335 159.773932,63.3404714 C159.814646,63.3168664 159.853763,63.2914048 159.894211,63.2677998 C160.285382,63.0397064 160.671763,62.8071042 161.051758,62.5676061 C161.098858,62.5379009 161.144894,62.5071348 161.191994,62.4774297 C161.546975,62.2514581 161.896635,62.0204472 162.241238,61.7849275 C162.302974,61.7427568 162.365508,61.7013817 162.426978,61.6589457 C162.791272,61.4067169 163.149181,61.1489183 163.501501,60.8866109 C163.571486,60.8343616 163.640939,60.7815819 163.710658,60.7288021 C164.069364,60.4574771 164.423813,60.1829694 164.768683,59.9015658 C165.199769,59.5501428 165.809943,60.0405436 165.552355,60.532801 M158.133674,61.8878348 C157.684759,62.3352691 156.956967,62.3352691 156.508052,61.8878348 C156.059137,61.4404004 156.059137,60.7150104 156.508052,60.2675761 C156.956967,59.8201418 157.684759,59.8201418 158.133674,60.2675761 C158.58259,60.7150104 158.58259,61.4404004 158.133674,61.8878348 M155.071097,58.8353618 C154.741395,59.1639754 154.407968,59.4870193 154.07055,59.8052892 C153.971826,59.8983831 153.870707,59.9880291 153.77145,60.0800621 C153.531426,60.302851 153.291667,60.5256399 153.047917,60.7431243 C152.920187,60.8569057 152.790063,60.9667088 152.661535,61.0791642 C152.443065,61.2698609 152.225393,61.4616184 152.004261,61.6480715 C151.904739,61.7321478 151.802822,61.8130414 151.702767,61.896322 C148.400697,64.2501926 144.558172,65.8961781 140.399783,66.6120201 C140.21697,66.6292597 140.034689,66.6491515 139.851345,66.6642693 C139.578323,66.6870787 139.303971,66.7037879 139.029885,66.7218231 C138.843347,66.7342887 138.657607,66.7496718 138.470803,66.7600155 C138.167978,66.7764595 137.863822,66.7868032 137.560199,66.7979427 C137.40107,66.8037776 137.242472,66.8130605 137.083077,66.8173041 C136.619792,66.8300349 136.155442,66.8366655 135.690561,66.8366655 C135.225413,66.8366655 134.761063,66.8300349 134.297778,66.8173041 C134.138649,66.8130605 133.980318,66.8040429 133.821454,66.7979427 C133.517565,66.7868032 133.213143,66.7764595 132.910052,66.7600155 C132.72378,66.7496718 132.538306,66.7342887 132.352567,66.7220884 C132.077948,66.7037879 131.803064,66.6870787 131.529244,66.6642693 C131.346166,66.6491515 131.163885,66.6292597 130.981072,66.6120201 C126.823216,65.8961781 122.980957,64.2504579 119.678886,61.8965872 C119.578033,61.8130414 119.475584,61.7316173 119.375263,61.6470106 C119.160252,61.4655968 118.9487,61.2791437 118.73635,61.0937515 C118.601702,60.9762569 118.465458,60.8614146 118.33214,60.7423286 C118.096107,60.5320053 117.864331,60.3161123 117.631757,60.1007497 C117.524784,60.0012903 117.415682,59.9047485 117.309241,59.8044935 C116.972354,59.4864889 116.638928,59.1637102 116.309492,58.8353618 C115.980589,58.5075439 115.657008,58.1754824 115.338217,57.8399729 C115.231776,57.7277828 115.12906,57.6129404 115.023683,57.4999547 C114.813728,57.2745135 114.603241,57.0498681 114.397809,56.8212442 C114.2762,56.6857143 114.158583,56.5472669 114.038571,56.4106761 C113.854427,56.2011485 113.668954,55.9924165 113.488802,55.7802366 C113.404181,55.6802469 113.322488,55.5784005 113.238665,55.4778803 C110.876737,52.1864397 109.225569,48.3565927 108.507357,44.2119238 C108.49006,44.0299795 108.470103,43.8488309 108.454935,43.6666215 C108.431784,43.3910528 108.414753,43.1141581 108.396392,42.8375285 C108.384417,42.6550538 108.36925,42.4731096 108.358872,42.2903697 C108.342107,41.9835045 108.331463,41.6758436 108.320021,41.3679176 C108.314432,41.2143524 108.305651,41.0610524 108.301393,40.907222 C108.28862,40.4452003 108.281968,39.9823829 108.281968,39.5185046 C108.281968,39.0548915 108.28862,38.5918089 108.301393,38.1300524 C108.305651,37.9756916 108.314432,37.8223916 108.320021,37.6685612 C108.331463,37.3611656 108.342107,37.0535047 108.358872,36.7469048 C108.36925,36.5636344 108.384417,36.3814249 108.396392,36.198685 C108.414753,35.9225859 108.431784,35.6459564 108.454935,35.370653 C108.470103,35.1884435 108.49006,35.0072949 108.507357,34.8253507 C109.225569,30.6804165 110.877003,26.8503042 113.239198,23.5585985 C113.32302,23.4583435 113.404448,23.3564971 113.489068,23.2567726 C113.67055,23.0432666 113.856822,22.8329432 114.042296,22.6220895 C114.160978,22.48709 114.276999,22.3504992 114.397277,22.2165607 C114.607232,21.9828976 114.82251,21.7529476 115.037521,21.5224672 C115.138108,21.4147859 115.236033,21.3049828 115.337685,21.197832 C115.656476,20.8620573 115.980323,20.5297305 116.309492,20.2016474 C116.638928,19.8735642 116.972354,19.5505203 117.309507,19.232781 C117.41515,19.1330564 117.523187,19.037045 117.629628,18.9383814 C117.862468,18.7227535 118.095042,18.5063301 118.331342,18.2954763 C118.465458,18.1755946 118.602767,18.0599566 118.738213,17.9419315 C118.949765,17.7570698 119.160518,17.5711472 119.374731,17.3905291 C119.474786,17.3059223 119.576969,17.2250287 119.677822,17.1414829 C122.980158,14.7870818 126.823216,13.1408311 130.981871,12.4249892 C131.164151,12.4080148 131.345633,12.3881229 131.52818,12.3730051 C131.807322,12.3496653 132.087528,12.3326909 132.367734,12.3141252 C132.548152,12.3021901 132.728038,12.2873375 132.908988,12.2772589 C133.218199,12.2602845 133.528741,12.2496755 133.839017,12.2385361 C133.99176,12.2329664 134.144237,12.2239487 134.297246,12.2197051 C134.760797,12.2069743 135.225147,12.2003437 135.690561,12.2003437 C136.155708,12.2003437 136.620058,12.2069743 137.083609,12.2197051 C137.238215,12.2239487 137.392022,12.2329664 137.546096,12.2385361 C137.854775,12.2499408 138.16372,12.2602845 138.471335,12.2772589 C138.654946,12.2873375 138.837493,12.3024553 139.020838,12.3146556 C139.298117,12.3329561 139.575662,12.3499305 139.852143,12.3727399 C140.034956,12.3881229 140.216704,12.4080148 140.39925,12.4252544 C144.557639,13.1410963 148.400431,14.7868166 151.702501,17.1409525 C151.803354,17.2244983 151.905537,17.3059223 152.005858,17.3902638 C152.220337,17.5711472 152.431356,17.757335 152.64344,17.942462 C152.778621,18.0604871 152.915664,18.1758599 153.049779,18.2957415 C153.280757,18.5018212 153.508275,18.7137359 153.736059,18.9245897 C153.847822,19.0280274 153.961448,19.129078 154.072413,19.2335766 C154.409299,19.551316 154.742194,19.8738294 155.071363,20.2016474 C155.400532,20.5299958 155.724645,20.8623225 156.043703,21.1983624 C156.143225,21.3031262 156.239022,21.4105423 156.33748,21.5161018 C156.55462,21.748704 156.772026,21.981041 156.98411,22.2170911 C157.103324,22.3497035 157.21828,22.4852334 157.335898,22.6189068 C157.522436,22.8313519 157.710039,23.0427361 157.892319,23.2575682 C157.97694,23.3572928 158.058367,23.4591391 158.14219,23.5593941 C160.503852,26.8505695 162.155287,30.6804165 162.873498,34.8248202 C162.890795,35.0070297 162.910752,35.1884435 162.926186,35.3711834 C162.948805,35.6438346 162.96557,35.9178119 162.983931,36.1912587 C162.996171,36.3766509 163.011605,36.5615126 163.021983,36.7474352 C163.038748,37.0495264 163.04886,37.3526784 163.060036,37.6555652 C163.066157,37.8139044 163.075204,37.9717132 163.079728,38.1303177 C163.092235,38.5923394 163.099153,39.0548915 163.099153,39.5185046 C163.099153,39.9821177 163.092235,40.4449351 163.079728,40.9066915 C163.075204,41.0655612 163.06589,41.2239005 163.060036,41.3827702 C163.04886,41.6853917 163.038748,41.9880133 163.021983,42.2898392 C163.011605,42.4762923 162.996171,42.6616845 162.983665,42.8476071 C162.96557,43.1205235 162.948805,43.3937051 162.926186,43.6658258 C162.910752,43.8485657 162.890795,44.0302448 162.873498,44.2124542 C162.155287,48.3565927 160.504384,52.1859093 158.142988,55.4768194 C158.058367,55.5778701 157.976407,55.6807773 157.890722,55.7812975 C157.714562,55.9889686 157.53308,56.1931918 157.353195,56.3982106 C157.229457,56.539045 157.108114,56.681736 156.982779,56.8215095 C156.779477,57.0477463 156.571118,57.2700047 156.363292,57.4927936 C156.255787,57.6081664 156.151208,57.7253958 156.042372,57.8399729 C155.726508,58.1725649 155.405854,58.5014437 155.079878,58.8263442 C155.076951,58.8292617 155.074024,58.8324444 155.071097,58.8353618 M153.737655,67.2305244 C153.70253,67.2718995 153.667936,67.3140703 153.632545,67.3554453 C153.549254,67.4527829 153.464634,67.5487943 153.380279,67.6448057 C153.282886,67.7556697 153.185492,67.8665337 153.087034,67.9755411 C153.001615,68.0702263 152.915398,68.1633203 152.829446,68.2566794 C152.73019,68.3638303 152.630667,68.4709811 152.530347,68.5765406 C152.443065,68.6683084 152.355251,68.7587501 152.267171,68.8489265 C152.165786,68.9528947 152.064401,69.0563324 151.961951,69.158444 C151.873339,69.2464986 151.78446,69.3337576 151.69505,69.4207514 C151.591536,69.5212716 151.48749,69.6212613 151.383177,69.7201902 C151.292969,69.8050622 151.202494,69.8894037 151.112019,69.9726843 C151.006642,70.0697566 150.900733,70.165768 150.794558,70.2609837 C150.703018,70.342673 150.611213,70.4235666 150.518875,70.5039297 C150.411636,70.5972888 150.303864,70.6895871 150.195826,70.7808245 C150.103223,70.8590658 150.010353,70.9365114 149.916951,71.0131614 C149.807582,71.1033379 149.697682,71.1916578 149.587249,71.2794472 C149.493847,71.3539754 149.400179,71.4279731 149.306245,71.5006447 C149.255419,71.5401632 149.204061,71.5780904 149.152969,71.6170784 C149.090169,71.6608405 149.01912,71.6902805 148.943547,71.7035417 C148.878351,71.7122942 148.813688,71.7218423 148.748227,71.729799 C148.634335,71.7441212 148.519645,71.7573824 148.404954,71.7701132 C148.258864,71.7865571 148.112773,71.8019402 147.965885,71.8159971 C147.852525,71.8268713 147.739165,71.8366846 147.625539,71.8462327 C147.475191,71.8586983 147.324577,71.870103 147.17343,71.8801815 C147.061135,71.8876078 146.948574,71.8945037 146.835746,71.9006038 C146.682471,71.909091 146.528663,71.9162521 146.37459,71.922087 C146.261762,71.9265959 146.148668,71.9305742 146.035309,71.9334917 C145.880171,71.9377353 145.7245,71.9406528 145.568564,71.9425094 C145.454938,71.9435703 145.341312,71.9446311 145.227154,71.9448964 C145.07042,71.9448964 144.913153,71.943305 144.75562,71.940918 C144.641196,71.9390614 144.526772,71.9372049 144.411815,71.9342874 C144.254016,71.9300438 144.095419,71.9242088 143.936822,71.9175782 C143.821333,71.9128042 143.705578,71.9080301 143.589557,71.9019299 C143.43096,71.893708 143.271831,71.8833642 143.112701,71.8727552 C142.996148,71.8647985 142.879595,71.8573722 142.762776,71.8480893 C142.704233,71.8435805 142.645424,71.8377455 142.586616,71.8327063 C142.088471,71.7632173 141.976708,71.075224 142.44638,70.8609224 C142.657665,70.7643805 142.867354,70.6606776 143.078108,70.5606878 C143.248147,70.4797942 143.418719,70.4012877 143.588227,70.3180071 C143.927774,70.1517111 144.265459,69.978254 144.602611,69.8026752 C144.720494,69.7414082 144.83891,69.6835892 144.956262,69.6209961 C145.408104,69.3809676 145.857818,69.1327172 146.305137,68.8762447 C146.422488,68.8088776 146.538509,68.7372669 146.655594,68.6688389 C146.941123,68.5017472 147.227183,68.3362469 147.510849,68.1625246 C147.555022,68.1354717 147.603186,68.1155798 147.653746,68.1036447 C147.98398,68.0248729 148.310488,67.93894 148.637262,67.8538029 C148.761,67.8217107 148.886334,67.7922707 149.009806,67.7591176 C149.510079,67.6246486 150.006361,67.4827533 150.498385,67.3334317 C150.615737,67.2978915 150.730959,67.258373 150.847512,67.2220372 C151.220589,67.1056035 151.592334,66.987048 151.960354,66.8618619 C152.134652,66.8027167 152.306288,66.7398584 152.479521,66.6785915 C152.702515,66.5998197 152.927638,66.5242306 153.14877,66.4422761 C153.633609,66.2627189 154.043407,66.8300349 153.737655,67.2305244 M134.540996,70.007694 C134.540996,69.3751327 135.055639,68.8619226 135.690561,68.8619226 C136.325482,68.8619226 136.840125,69.3751327 136.840125,70.007694 C136.840125,70.6405205 136.325482,71.1534654 135.690561,71.1534654 C135.055639,71.1534654 134.540996,70.6405205 134.540996,70.007694 M141.897143,75.4238509 C139.868375,76.0593297 137.783992,76.3847606 135.690561,76.3847606 C133.596863,76.3847606 131.51248,76.0593297 129.483712,75.4238509 C128.949643,75.2567592 129.038256,74.4801808 129.595209,74.4247488 C129.646567,74.4197096 129.698191,74.413079 129.749549,74.4077745 C129.813679,74.4011438 129.87781,74.3934523 129.941941,74.3865565 C130.307034,74.3465075 130.672925,74.3024802 131.039615,74.2510266 C131.048929,74.2497004 131.058508,74.2486395 131.068088,74.2473134 C131.437971,74.1950641 131.808918,74.1353885 132.179866,74.0717346 C132.251447,74.0595342 132.322763,74.0475991 132.394345,74.0348683 C132.753317,73.9712143 133.112822,73.9022559 133.472327,73.8279929 C133.540982,73.8136708 133.609636,73.7985529 133.678291,73.7839656 C134.046577,73.7057242 134.41513,73.6232393 134.783682,73.5335933 C134.790867,73.532002 134.798052,73.5304106 134.805236,73.528554 C135.057768,73.4670219 135.310034,73.4031027 135.562033,73.336266 C135.646121,73.3139871 135.734734,73.3139871 135.818822,73.336266 C136.071088,73.4031027 136.323353,73.4672871 136.575885,73.5288193 C136.582537,73.5304106 136.589456,73.5317367 136.596109,73.5335933 C136.965459,73.6232393 137.334544,73.7057242 137.703629,73.7842308 C137.771751,73.7988182 137.839607,73.8136708 137.907729,73.8277277 C138.267767,73.9022559 138.627804,73.9712143 138.987309,74.0351335 C139.058358,74.0475991 139.129141,74.0595342 139.199925,74.0717346 C139.571138,74.1353885 139.942352,74.1950641 140.312501,74.2473134 C140.322347,74.2486395 140.332192,74.2497004 140.342038,74.2510266 C140.708462,74.3024802 141.073821,74.3465075 141.438382,74.3865565 C141.502779,74.3934523 141.567176,74.4011438 141.631573,74.4077745 C141.68293,74.413079 141.734288,74.4197096 141.785646,74.4247488 C142.342599,74.4801808 142.431212,75.2567592 141.897143,75.4238509 M128.787587,71.8337672 C128.740487,71.8374803 128.69312,71.8422544 128.64602,71.8459675 C128.498599,71.8576374 128.35171,71.8671855 128.204822,71.8769988 C128.078157,71.8852208 127.951492,71.8934428 127.825093,71.9000734 C127.676341,71.9080301 127.527856,71.9143955 127.379637,71.9199652 C127.255899,71.9250045 127.132161,71.9297786 127.008955,71.9332265 C126.859672,71.9372049 126.711186,71.9395919 126.562701,71.9417137 C126.441092,71.943305 126.319483,71.9446311 126.19814,71.9446311 C126.049655,71.9448964 125.901701,71.9435703 125.754014,71.9414485 C125.632938,71.9398571 125.512393,71.9377353 125.391848,71.9348178 C125.24629,71.9311047 125.101264,71.9260654 124.956504,71.9202305 C124.833831,71.9151912 124.71169,71.9096215 124.589548,71.9029908 C124.44878,71.8955645 124.308544,71.8870774 124.168574,71.8775293 C124.042441,71.8687768 123.916574,71.8592287 123.790974,71.8491502 C123.657656,71.8380108 123.524339,71.8266061 123.391819,71.8136101 C123.259566,71.8008793 123.128112,71.7870876 122.996657,71.7725002 C122.872387,71.7587085 122.748383,71.7443864 122.624645,71.7290033 C122.562377,71.7210466 122.500375,71.7120289 122.438107,71.703807 C122.362268,71.6902805 122.290952,71.6608405 122.227886,71.6168132 C122.17706,71.5780904 122.125968,71.5401632 122.075143,71.5011752 C121.980676,71.4279731 121.886742,71.3534449 121.792807,71.2789167 C121.682907,71.1913925 121.573273,71.1033379 121.464437,71.0136919 C121.370768,70.9367767 121.277366,70.8588006 121.184496,70.7800288 C121.076725,70.6893219 120.969485,70.5975541 120.862778,70.5044601 C120.769908,70.4238318 120.67757,70.3421425 120.585233,70.2596576 C120.479856,70.1655028 120.375011,70.070287 120.270433,69.9740104 C120.178628,69.8894037 120.087354,69.8045317 119.996347,69.7183336 C119.893099,69.6209961 119.790384,69.5223325 119.6882,69.4228732 C119.597459,69.3345533 119.506984,69.2462334 119.417307,69.1565874 C119.316188,69.0558019 119.215868,68.9536904 119.115813,68.8510483 C119.026668,68.7595458 118.93779,68.6680432 118.849444,68.5749493 C118.750188,68.4707159 118.651996,68.3651564 118.553804,68.2590665 C118.466522,68.1643812 118.378974,68.0699611 118.292491,67.9739497 C118.195363,67.8662684 118.0993,67.757261 118.003503,67.6479884 C117.917552,67.5503856 117.831867,67.4527829 117.74698,67.353854 C117.71212,67.3132746 117.678059,67.2716343 117.643732,67.2310549 C117.337181,66.8303001 117.747246,66.2627189 118.232351,66.4425414 C118.452951,66.5242306 118.677808,66.5998197 118.900536,66.6783263 C119.074035,66.7395932 119.246203,66.8027167 119.420501,66.8618619 C119.789319,66.9873132 120.161597,67.106134 120.535472,67.2225677 C120.651226,67.2589035 120.76565,67.2978915 120.882204,67.3331665 C121.374494,67.4827533 121.871042,67.6249138 122.372113,67.7593828 C122.492392,67.7917402 122.615065,67.8203845 122.736142,67.8519463 C123.065311,67.9376139 123.394214,68.0243424 123.727109,68.1036447 C123.777669,68.1155798 123.825833,68.1354717 123.870006,68.1625246 C124.161123,68.3407557 124.454368,68.5107648 124.747347,68.6818349 C124.856449,68.7454889 124.964221,68.8123255 125.073323,68.8749186 C125.522239,69.1321867 125.973549,69.3812328 126.426988,69.6223222 C126.537953,69.6812022 126.650249,69.7361037 126.76148,69.794188 C127.105285,69.9732147 127.449622,70.1501197 127.795821,70.3195984 C127.961071,70.400492 128.127119,70.477142 128.292902,70.5559138 C128.506582,70.6574949 128.719464,70.7627892 128.933943,70.8606571 C129.405744,71.0760197 129.291319,71.7690523 128.787587,71.8337672 M113.247181,60.2675761 C113.696096,59.8201418 114.423888,59.8201418 114.872803,60.2675761 C115.321985,60.7150104 115.321985,61.4404004 114.872803,61.8878348 C114.423888,62.3352691 113.696096,62.3352691 113.247181,61.8878348 C112.798265,61.4404004 112.798265,60.7150104 113.247181,60.2675761 M114.6067,69.2817735 C112.721362,68.3012372 111.016175,67.0626371 109.535844,65.586926 C108.055248,64.11148 106.812282,62.4119191 105.8285,60.532801 C105.570912,60.0405436 106.181086,59.5501428 106.612173,59.9015658 C106.616164,59.9050137 106.620688,59.9081964 106.624679,59.9113791 C106.96396,60.1877434 107.312023,60.4577423 107.664609,60.7245585 C107.737521,60.7797253 107.810168,60.8348921 107.883612,60.8897936 C108.233803,61.1505097 108.589317,61.4067169 108.951749,61.6573544 C109.015081,61.7011165 109.079744,61.7440829 109.143609,61.7875798 C109.486615,62.0217733 109.834412,62.2517233 110.187796,62.476634 C110.235163,62.5068696 110.281731,62.5379009 110.329363,62.5678713 C110.709624,62.8076346 111.096804,63.040502 111.488241,63.2685954 C111.528423,63.2919352 111.566741,63.3171316 111.606923,63.3404714 C111.682762,63.3842335 111.745829,63.4470918 111.789736,63.5226808 C111.814483,63.5651168 111.841093,63.6056962 111.866107,63.647867 C112.092827,64.0340344 112.323804,64.415693 112.5617,64.7909861 C112.595761,64.8442963 112.63062,64.8965456 112.664682,64.9495906 C112.885547,65.2943829 113.111468,65.6336055 113.341647,65.9685845 C113.388481,66.0367473 113.434517,66.1057058 113.481617,66.1736034 C113.731222,66.5319221 113.986414,66.8836103 114.245865,67.229994 C114.302811,67.3058483 114.360289,67.3809069 114.417501,67.4562308 C114.683072,67.804471 114.951569,68.1487329 115.22672,68.4839771 C115.231244,68.4895469 115.235501,68.4953818 115.239759,68.5006863 C115.592611,68.9303506 115.100587,69.5387764 114.6067,69.2817735 M105.392357,55.1630584 C105.304277,55.0704949 105.217261,54.9776662 105.131044,54.8843071 C105.036844,54.7827259 104.943442,54.6806144 104.85137,54.5782376 C104.765685,54.4832871 104.681064,54.3878061 104.597242,54.2920599 C104.507565,54.1896831 104.418953,54.0867759 104.331139,53.9836034 C104.248381,53.8862659 104.166155,53.7889284 104.08526,53.6907952 C104.000107,53.5878879 103.916551,53.4844502 103.833261,53.3807473 C103.753164,53.2810228 103.673599,53.181033 103.595365,53.0805128 C103.558642,53.0333027 103.522985,52.9855623 103.486529,52.938087 C103.442089,52.8749635 103.412286,52.8030876 103.398715,52.726968 C103.390465,52.6654358 103.381418,52.6044341 103.373701,52.542902 C103.358267,52.4211637 103.34443,52.2991603 103.330592,52.1768917 C103.315158,52.0403008 103.300523,51.9034448 103.287218,51.7660583 C103.275509,51.6437897 103.264865,51.5212558 103.254487,51.3984567 C103.243044,51.2592136 103.2324,51.1197053 103.222821,50.9796666 C103.214571,50.8568675 103.207121,50.7338032 103.200202,50.6104736 C103.192485,50.469374 103.185832,50.3280091 103.180244,50.1861138 C103.175454,50.0619886 103.171197,49.9375981 103.167737,49.8129424 C103.163746,49.6705167 103.161351,49.5278257 103.159488,49.3848695 C103.157892,49.2596834 103.156827,49.134232 103.156827,49.0085154 C103.157093,48.8647636 103.158424,48.7207465 103.160553,48.5764641 C103.162415,48.4502171 103.164544,48.3237048 103.168003,48.1969274 C103.171729,48.0521146 103.177317,47.9070366 103.183171,47.7616934 C103.188493,47.6343854 103.193815,47.5070775 103.200468,47.3792391 C103.208185,47.2333654 103.217765,47.0874918 103.22761,46.9413529 C103.236126,46.8132492 103.244641,46.6851456 103.254753,46.5567768 C103.259011,46.5029362 103.264333,46.4488303 103.268856,46.3949896 C103.336713,45.8961017 104.029112,45.7836463 104.244656,46.2525639 C104.342049,46.4647438 104.446628,46.6750671 104.547747,46.8861861 C104.627844,47.053543 104.705546,47.2214303 104.788038,47.3882567 C104.957279,47.7314577 105.133705,48.0728021 105.31226,48.4136161 C105.371335,48.5260714 105.427217,48.6395877 105.48709,48.7517778 C105.728977,49.2037209 105.978848,49.6535423 106.236968,50.1007114 C106.299502,50.2091884 106.366293,50.3163392 106.429892,50.424551 C106.601794,50.7168288 106.772633,51.009637 106.951454,51.299793 C106.978596,51.3438204 106.998554,51.3920913 107.010795,51.442484 C107.090892,51.7761369 107.178173,52.1060766 107.264923,52.4365468 C107.295791,52.5548371 107.323998,52.6749839 107.35593,52.793009 C107.490844,53.2916318 107.633209,53.7860109 107.783025,54.2761464 C107.820279,54.3981499 107.861525,54.5177663 107.899578,54.6389741 C108.014801,55.00578 108.132152,55.3712599 108.25589,55.7327614 C108.316295,55.9094011 108.380426,56.0836539 108.44296,56.2592327 C108.521194,56.4791042 108.596235,56.7013626 108.677663,56.9193774 C108.857814,57.4026171 108.289153,57.8107982 107.887337,57.5065853 C107.845027,57.4710451 107.801918,57.4360355 107.759874,57.4002301 C107.663279,57.3180104 107.56828,57.2347298 107.473015,57.1517144 C107.360986,57.0541117 107.248957,56.9562437 107.13879,56.8573148 C107.044057,56.7724429 106.950655,56.6867752 106.857519,56.6011076 C106.749748,56.5021787 106.642242,56.4029846 106.536333,56.3029948 C106.443996,56.2157359 106.352988,56.1276812 106.261981,56.0396266 C106.158467,55.9396368 106.055751,55.8391166 105.9541,55.7380659 C105.863891,55.6481547 105.774747,55.557713 105.685869,55.4670061 C105.587144,55.3662206 105.489219,55.2649047 105.392357,55.1630584 M106.250007,39.5187698 C106.250007,40.1515964 105.735364,40.6645412 105.100442,40.6645412 C104.465521,40.6645412 103.950878,40.1515964 103.950878,39.5187698 C103.950878,38.8859433 104.465521,38.3729984 105.100442,38.3729984 C105.735364,38.3729984 106.250007,38.8859433 106.250007,39.5187698 M103.159488,29.6547919 C103.161351,29.5102444 103.164012,29.3659621 103.167737,29.221945 C103.171197,29.0988806 103.175454,28.9763467 103.180244,28.8538129 C103.185832,28.710061 103.192485,28.5665743 103.200468,28.4236181 C103.207121,28.3026756 103.214305,28.1819983 103.222555,28.0618514 C103.232134,27.9183648 103.243044,27.7754086 103.255019,27.6327176 C103.264865,27.5141621 103.275243,27.3956066 103.286685,27.2773163 C103.300523,27.1348905 103.315691,26.99273 103.331657,26.8510999 C103.344696,26.7346662 103.358001,26.6182325 103.372637,26.5023292 C103.380886,26.4376144 103.390199,26.3736952 103.398981,26.3092455 C103.412286,26.2336564 103.441823,26.1625762 103.486262,26.0997179 C103.523783,26.0506513 103.560771,26.0013195 103.598824,25.9525181 C103.674663,25.8551806 103.751833,25.7581083 103.829269,25.6613012 C103.914422,25.5552112 104.000373,25.4491213 104.087389,25.343827 C104.16722,25.2472852 104.247849,25.151539 104.329276,25.0557928 C104.418155,24.9512942 104.507831,24.8470609 104.598572,24.7433579 C104.681596,24.6486727 104.765419,24.5545178 104.850039,24.460363 C104.942909,24.3571905 105.036844,24.2545485 105.131576,24.1521717 C105.217794,24.059343 105.304543,23.9665143 105.392091,23.8742161 C105.488952,23.7726349 105.586878,23.6715843 105.685336,23.5707988 C105.774747,23.4795615 105.864424,23.3885893 105.955165,23.2981477 C106.055751,23.1981579 106.157669,23.0986986 106.259852,22.9995045 C106.35219,22.9103889 106.444262,22.8212733 106.53793,22.7329535 C106.642242,22.6342898 106.748151,22.5366871 106.854326,22.4390843 C106.949325,22.3518253 107.044324,22.2643011 107.140919,22.1778378 C107.248957,22.0810308 107.358325,21.9852846 107.468225,21.8895384 C107.565885,21.8044012 107.663545,21.7189988 107.762801,21.6346573 C107.803515,21.5999129 107.845559,21.5656988 107.886539,21.5312196 C108.288354,21.2259458 108.857814,21.6343921 108.677397,22.117897 C108.596501,22.3348509 108.521993,22.5557833 108.444024,22.7745938 C108.381224,22.9514988 108.316295,23.1273428 108.255358,23.3055739 C108.132684,23.6646884 108.016397,24.027516 107.901707,24.3914045 C107.862856,24.5152645 107.820812,24.6375332 107.782759,24.7619237 C107.633209,25.2515288 107.490844,25.7456427 107.356196,26.243735 C107.324264,26.3614948 107.296057,26.4816417 107.265189,26.599932 C107.178439,26.9304022 107.090892,27.2606071 107.010795,27.5947904 C106.998554,27.6449179 106.978596,27.6931889 106.951454,27.7372162 C106.772633,28.0276374 106.601528,28.3204457 106.429626,28.6129887 C106.366293,28.7209352 106.299502,28.828086 106.236968,28.9362978 C105.978848,29.3834669 105.728977,29.8332883 105.487356,30.2849662 C105.426684,30.3982172 105.370803,30.5122639 105.311196,30.6257802 C105.132907,30.9655332 104.957013,31.3060819 104.788304,31.648222 C104.705546,31.8158441 104.627311,31.9845271 104.546682,32.1526797 C104.446095,32.3632682 104.341783,32.5730611 104.244656,32.7844453 C104.029112,33.2533629 103.336979,33.1411728 103.268856,32.64255 C103.264333,32.5881789 103.259011,32.5338078 103.254753,32.479702 C103.244641,32.3521288 103.236126,32.2248209 103.22761,32.0975129 C103.217765,31.9505784 103.208185,31.8036438 103.200468,31.6572397 C103.193815,31.530197 103.188493,31.4034195 103.183437,31.2769072 C103.177317,31.1307683 103.171729,30.9848946 103.167737,30.8392862 C103.164544,30.7133044 103.162415,30.5875878 103.160553,30.4621364 C103.158424,30.3170584 103.157093,30.1719804 103.156827,30.0274329 C103.156827,29.9030424 103.157892,29.7789172 103.159488,29.6547919 M101.760852,39.646343 C101.737168,39.7349281 101.715614,39.8235132 101.692729,39.9118331 C101.666651,40.013149 101.640307,40.1144649 101.615027,40.2157808 C101.564734,40.4168212 101.516303,40.6178617 101.469469,40.8191673 C101.450043,40.9019175 101.42982,40.9844024 101.410926,41.0671526 C101.347328,41.3477605 101.286656,41.6283684 101.22971,41.9087111 C101.219066,41.9609604 101.209753,42.0132097 101.199375,42.065459 C101.153605,42.2956741 101.109432,42.5258893 101.068186,42.7555741 C101.050889,42.8521159 101.034657,42.9486578 101.018159,43.0451996 C100.985428,43.2345702 100.954294,43.4236755 100.924756,43.6127808 C100.909056,43.7143619 100.893356,43.8156778 100.878455,43.917259 C100.849715,44.1121992 100.822839,44.3068743 100.797293,44.5015493 C100.785851,44.589604 100.773344,44.6776586 100.762434,44.7657133 C100.728373,45.0423428 100.69644,45.3184419 100.668766,45.5937453 C100.61315,46.1491262 99.8340009,46.2371808 99.6663561,45.7048745 C99.0287737,43.6828002 98.7022655,41.6052938 98.7022655,39.5185046 C98.7022655,37.4319806 99.0287737,35.354209 99.6663561,33.3321347 C99.8340009,32.7998284 100.61315,32.887883 100.668766,33.4432639 C100.69644,33.7185673 100.728373,33.9946664 100.762434,34.2712959 C100.773344,34.3593506 100.785851,34.4476704 100.797293,34.5359903 C100.822839,34.7304002 100.849715,34.9250752 100.878455,35.1200155 C100.893356,35.2213314 100.909056,35.3226473 100.924756,35.4242284 C100.954294,35.6133337 100.985428,35.8027043 101.018159,35.9920748 C101.034657,36.0886167 101.050889,36.1848933 101.068186,36.2814352 C101.109698,36.5116503 101.153605,36.7418655 101.199375,36.9723459 C101.209753,37.02433 101.219066,37.0763141 101.22971,37.1282981 C101.286656,37.4086408 101.347328,37.6892487 101.410926,37.9698566 C101.42982,38.0526068 101.450043,38.1350917 101.469469,38.2178419 C101.516303,38.4191475 101.564734,38.6204532 101.615027,38.8217589 C101.640307,38.9228096 101.666651,39.0238602 101.692729,39.1249109 C101.715614,39.213496 101.737168,39.3020811 101.760852,39.3906662 C101.783204,39.4744773 101.783204,39.5627972 101.760852,39.646343 M114.872803,18.7696983 C114.423888,19.2173979 113.696096,19.2173979 113.247181,18.7696983 C112.798265,18.322264 112.798265,17.596874 113.247181,17.1494397 C113.696096,16.7020053 114.423888,16.7020053 114.872803,17.1494397 C115.321985,17.596874 115.321985,18.322264 114.872803,18.7696983 M105.8285,18.5044735 C106.812282,16.6253553 108.055248,14.9257944 109.535844,13.4503485 C111.016175,11.9746373 112.721362,10.735772 114.6067,9.75523569 C115.100587,9.4982328 115.592611,10.1066586 115.240025,10.5363229 C115.235235,10.5418926 115.230977,10.5477276 115.226454,10.5535625 C114.951303,10.8888068 114.682806,11.2330686 114.417501,11.5813089 C114.360289,11.6563675 114.302811,11.7311609 114.246131,11.80675 C113.986414,12.1533989 113.731222,12.5053523 113.481351,12.8639363 C113.434517,12.9313034 113.388747,12.9997314 113.342179,13.0673638 C113.111734,13.4031385 112.885281,13.7431567 112.663883,14.0887447 C112.630354,14.1412593 112.595761,14.1929781 112.562232,14.2457578 C112.32407,14.621051 112.092827,15.0032401 111.865841,15.3894075 C111.841093,15.4315782 111.814483,15.4721576 111.789736,15.5145936 C111.745829,15.5899175 111.682762,15.6527757 111.606923,15.6968031 C111.565145,15.7209385 111.525229,15.7469306 111.483717,15.7713313 C111.094941,15.9980985 110.710422,16.2293746 110.332556,16.4672813 C110.281198,16.499904 110.230905,16.5333223 110.179547,16.565945 C109.831219,16.7876729 109.488478,17.0144402 109.149995,17.2451858 C109.082937,17.2910697 109.015347,17.3358927 108.948555,17.3820419 C108.587986,17.6316185 108.234069,17.8864995 107.885475,18.1461547 C107.8107,18.2018519 107.736723,18.2580796 107.66248,18.3143072 C107.311491,18.5797973 106.965025,18.8487353 106.627074,19.1237735 C106.622284,19.1277519 106.616962,19.1314651 106.612173,19.1354434 C106.181086,19.4871316 105.570912,18.9967308 105.8285,18.5044735 M117.6432,11.80675 C117.678591,11.7651097 117.713451,11.7224085 117.748843,11.6810334 C117.831867,11.5842263 117.915689,11.4890106 117.999245,11.3937949 C118.097437,11.2821352 118.195363,11.1707408 118.294619,11.0609377 C118.37924,10.9667829 118.464925,10.8742194 118.55061,10.7816559 C118.650399,10.6737094 118.750188,10.5662933 118.851307,10.4602034 C118.938056,10.3687008 119.02587,10.2782591 119.113684,10.1883479 C119.214803,10.0843797 119.316188,9.98120727 119.418372,9.87936093 C119.507516,9.7905106 119.597193,9.70272117 119.687136,9.61519696 C119.789851,9.51547241 119.892833,9.41627832 119.996613,9.31814512 C120.08762,9.23221226 120.178894,9.1473403 120.270699,9.06273357 C120.375011,8.9669874 120.47959,8.87177167 120.584701,8.77788207 C120.67757,8.69486669 120.770706,8.61264698 120.864109,8.53122295 C120.969751,8.43945515 121.07566,8.34874824 121.182101,8.25883701 C121.276834,8.17900433 121.371567,8.0997021 121.467098,8.02119554 C121.573805,7.93340611 121.68131,7.84720803 121.788816,7.76154039 C121.885145,7.68462518 121.98174,7.60824042 122.078868,7.53318179 C122.128097,7.49525463 122.177858,7.45812315 122.227353,7.42046122 C122.29042,7.37643389 122.361735,7.34699393 122.437841,7.33346747 C122.501173,7.32524549 122.56424,7.31596262 122.627838,7.30800588 C122.747584,7.29288806 122.867597,7.27909637 122.988141,7.26583513 C123.12545,7.25045208 123.263026,7.23586472 123.401399,7.22260347 C123.525669,7.21066835 123.650471,7.19979413 123.77554,7.18945037 C123.91205,7.1780457 124.048561,7.16770193 124.18587,7.15841906 C124.313334,7.14993186 124.441063,7.14224034 124.569324,7.13534449 C124.705569,7.1279182 124.84208,7.1215528 124.979123,7.11598308 C125.109247,7.11094381 125.239904,7.10643498 125.370826,7.10298706 C125.507071,7.09927391 125.643582,7.09688689 125.780359,7.09529554 C125.912612,7.09343896 126.044865,7.09237807 126.17765,7.09237807 C126.315225,7.09264329 126.453333,7.09396941 126.59144,7.09582599 C126.724225,7.09794779 126.857277,7.10006959 126.99086,7.10351751 C127.130032,7.10723066 127.26947,7.11253515 127.40944,7.1183701 C127.542225,7.1236746 127.675277,7.1289791 127.80886,7.13614017 C127.950693,7.14356646 128.092792,7.15284933 128.235157,7.16239743 C128.367676,7.17114985 128.49993,7.17963705 128.632715,7.19024604 C128.685137,7.19422441 128.738092,7.19952891 128.790514,7.20403773 C129.291586,7.27113962 129.404679,7.96151994 128.934209,8.17635208 C128.722658,8.27289393 128.512703,8.37686208 128.302215,8.47685185 C128.132442,8.55748021 127.962402,8.63572154 127.793427,8.71873693 C127.450154,8.88688949 127.108744,9.06220312 126.767866,9.23963856 C126.65424,9.29904893 126.539816,9.35474615 126.426456,9.41495219 C125.973283,9.65577637 125.522239,9.90482251 125.073323,10.1620906 C124.963955,10.2249489 124.855917,10.2917856 124.746549,10.3554396 C124.453836,10.5265096 124.160591,10.6965187 123.870006,10.8744846 C123.825833,10.9015375 123.777402,10.9214294 123.727109,10.9333645 C123.389158,11.0139929 123.054933,11.1017823 122.720442,11.1890413 C122.604953,11.2192769 122.488134,11.2465951 122.373178,11.2773612 C121.87184,11.4120954 121.375026,11.5542559 120.882204,11.7038428 C120.764054,11.7396481 120.648033,11.7794318 120.530416,11.8160329 C120.15867,11.9322014 119.787989,12.0504917 119.421299,12.1748821 C119.245671,12.2345577 119.072704,12.2979465 118.898407,12.3594786 C118.676211,12.4379852 118.452152,12.513309 118.232085,12.5947331 C117.747246,12.7742903 117.337714,12.2072396 117.6432,11.80675 M136.840125,9.02958047 C136.840125,9.66240699 136.325482,10.1753519 135.690561,10.1753519 C135.055639,10.1753519 134.540996,9.66240699 134.540996,9.02958047 C134.540996,8.39675394 135.055639,7.88380906 135.690561,7.88380906 C136.325482,7.88380906 136.840125,8.39675394 136.840125,9.02958047 M129.483712,3.61315831 C131.51248,2.97794476 133.596863,2.65224863 135.690561,2.65224863 C137.783992,2.65224863 139.868375,2.97794476 141.897143,3.61315831 C142.431212,3.7805152 142.342599,4.5570936 141.785646,4.61252559 C141.508367,4.64010898 141.230556,4.67193596 140.952212,4.70614997 C140.867059,4.71675897 140.78164,4.72869408 140.696487,4.73983353 C140.497975,4.76556034 140.299196,4.79261328 140.100151,4.82178801 C140.000628,4.83637538 139.90084,4.85175842 139.801317,4.86714146 C139.609457,4.89684665 139.417331,4.92840841 139.225205,4.96129629 C139.12994,4.97747501 139.034675,4.9933885 138.93941,5.01036289 C138.706836,5.05200319 138.473996,5.09603052 138.241156,5.14217965 C138.190331,5.15225819 138.139771,5.16101061 138.089212,5.17135438 C137.807143,5.22837773 137.52534,5.288849 137.243271,5.35250296 C137.161577,5.37080348 137.079884,5.39069534 136.99819,5.40979153 C136.795153,5.45700156 136.591851,5.50527248 136.388548,5.55593043 C136.287695,5.58112679 136.187108,5.60685361 136.086255,5.63284564 C135.997111,5.65565498 135.907967,5.6771382 135.818822,5.70074321 C135.734734,5.7230221 135.646121,5.7230221 135.562033,5.70074321 C135.473421,5.67740342 135.384808,5.65592021 135.296196,5.63311087 C135.194545,5.60711883 135.092894,5.58086157 134.990976,5.55566521 C134.789004,5.50527248 134.587298,5.45726678 134.385326,5.41032198 C134.302302,5.39122579 134.219544,5.3710687 134.136786,5.35223774 C133.855249,5.288849 133.573446,5.22837773 133.29191,5.17135438 C133.240818,5.16101061 133.189726,5.15199297 133.138368,5.14191442 C132.90606,5.0957653 132.673753,5.05173797 132.441445,5.01036289 C132.345914,4.99312327 132.250383,4.97720978 132.154586,4.96103106 C131.963258,4.92840841 131.772196,4.89684665 131.581134,4.86740669 C131.480548,4.85175842 131.379961,4.83637538 131.279374,4.82152279 C131.081925,4.79261328 130.884743,4.76582557 130.687827,4.74009875 C130.601078,4.72869408 130.514062,4.71675897 130.427046,4.70614997 C130.149501,4.67193596 129.871956,4.64010898 129.595209,4.61252559 C129.038256,4.55682837 128.949643,3.7805152 129.483712,3.61315831 M142.588478,7.20403773 C142.644094,7.19952891 142.699976,7.19369396 142.755591,7.18945037 C142.879861,7.17963705 143.003865,7.1716803 143.128135,7.16345833 C143.279548,7.15337978 143.431226,7.14330124 143.582373,7.13534449 C143.705046,7.1289791 143.827187,7.12393982 143.949594,7.11890055 C144.101805,7.11280038 144.25375,7.10696543 144.405163,7.10298706 C144.525441,7.09980436 144.645453,7.09794779 144.7652,7.09609121 C144.917411,7.09396941 145.069621,7.09237807 145.221034,7.09237807 C145.339716,7.09237807 145.458131,7.09343896 145.576547,7.09476509 C145.727694,7.09662166 145.878574,7.09927391 146.028922,7.10325228 C146.147072,7.10643498 146.264955,7.11067858 146.382573,7.1151874 C146.531324,7.12102235 146.679544,7.1279182 146.827497,7.13587494 C146.945912,7.14250556 147.064062,7.14966664 147.18168,7.15735816 C147.327238,7.16717148 147.472264,7.17831092 147.617024,7.19024604 C147.735972,7.20005936 147.854654,7.21040313 147.973069,7.2218078 C148.114104,7.23533427 148.254606,7.25018686 148.394842,7.26583513 C148.515653,7.27936159 148.636464,7.29315329 148.756476,7.3082711 C148.818744,7.31622785 148.88048,7.32524549 148.942482,7.33346747 C149.01912,7.34672871 149.090967,7.37643389 149.1543,7.42099167 C149.201932,7.45732748 149.250097,7.49286761 149.297463,7.52973386 C149.39805,7.60744475 149.498105,7.68648176 149.597893,7.76604922 C149.702206,7.84932982 149.806518,7.93314088 149.910032,8.01827806 C150.008224,8.0986412 150.105618,8.18033045 150.203011,8.26255016 C150.306791,8.35007437 150.410039,8.43839425 150.513021,8.52804025 C150.608818,8.61158608 150.704615,8.69592759 150.79988,8.78106477 C150.902596,8.8730978 151.005045,8.9659265 151.106963,9.0598161 C151.200631,9.14601418 151.294033,9.23300794 151.387169,9.32079737 C151.48882,9.41680877 151.589673,9.51414629 151.690526,9.61201426 C151.782066,9.70112982 151.873605,9.79077582 151.964612,9.88148273 C152.065199,9.98173772 152.164988,10.0833188 152.26451,10.1856956 C152.353921,10.2771982 152.442799,10.3687008 152.531145,10.4617947 C152.630934,10.5665585 152.729658,10.6729137 152.828116,10.7792689 C152.914865,10.8728933 153.001349,10.9667829 153.087034,11.0617334 C153.185758,11.171006 153.283418,11.28187 153.380811,11.3929992 C153.464634,11.4884802 153.548722,11.5839611 153.631746,11.6807682 C153.667404,11.7224085 153.702264,11.7651097 153.737921,11.8070152 C154.043141,12.2075048 153.633609,12.7742903 153.14877,12.5947331 C152.929501,12.5135743 152.706241,12.4385156 152.485109,12.3605395 C152.309481,12.2984769 152.134918,12.2345577 151.95796,12.1743517 C151.596592,12.0518178 151.231499,11.9353841 150.865075,11.8208069 C150.741603,11.7823493 150.620261,11.740709 150.496257,11.7030471 C150.005031,11.5539907 149.509547,11.4123606 149.010072,11.2778916 C148.888995,11.2455342 148.76579,11.2168899 148.644447,11.1850629 C148.315278,11.0993953 147.986375,11.0126668 147.653746,10.9333645 C147.603186,10.9214294 147.555022,10.9015375 147.510849,10.8744846 C147.216539,10.6943969 146.919834,10.522266 146.623662,10.3493394 C146.518551,10.2880724 146.414505,10.2236228 146.309128,10.1631515 C145.858882,9.90508774 145.406241,9.65498069 144.951206,9.41336084 C144.846893,9.35792885 144.741517,9.30647522 144.636938,9.25210413 C144.286481,9.06909897 143.935225,8.88901129 143.582373,8.71608468 C143.420316,8.63678244 143.257195,8.56145858 143.094606,8.48427815 C142.878531,8.38163612 142.663519,8.27528095 142.446646,8.17635208 C141.976442,7.96151994 142.089003,7.27246575 142.588478,7.20403773 M158.133674,18.7696983 C157.684759,19.2173979 156.956967,19.2173979 156.508052,18.7696983 C156.059137,18.322264 156.059137,17.596874 156.508052,17.1494397 C156.956967,16.7020053 157.684759,16.7020053 158.133674,17.1494397 C158.58259,17.596874 158.58259,18.322264 158.133674,18.7696983 M156.774155,9.75523569 C158.659493,10.735772 160.36468,11.9746373 161.845277,13.4503485 C163.325607,14.9257944 164.568307,16.6250901 165.552089,18.5044735 C165.809943,18.9964656 165.199503,19.4871316 164.768416,19.1354434 C164.764957,19.132526 164.761232,19.1298737 164.757772,19.1269562 C164.418225,18.8503267 164.06963,18.5800626 163.716778,18.3129811 C163.643334,18.2575491 163.570421,18.2018519 163.496445,18.1466851 C163.147318,17.8867648 162.792603,17.6313532 162.431501,17.3815114 C162.365508,17.3358927 162.29845,17.291335 162.231924,17.2459815 C161.893441,17.0149706 161.550169,16.7879382 161.201574,16.5662102 C161.150216,16.5333223 161.099657,16.4996387 161.047766,16.4670161 C160.670965,16.2296398 160.287245,15.998629 159.899267,15.7723922 C159.856956,15.7477262 159.816243,15.7212038 159.773932,15.6968031 C159.698093,15.6527757 159.635026,15.5899175 159.59112,15.5145936 C159.567702,15.4742794 159.542423,15.4358218 159.51874,15.3955076 C159.289891,15.0056271 159.056519,14.6199901 158.816228,14.241249 C158.785892,14.1937738 158.754758,14.1470942 158.724156,14.0996189 C158.498767,13.7476656 158.268322,13.4010167 158.033353,13.059407 C157.989447,12.9957531 157.946604,12.9313034 157.902431,12.8679147 C157.650698,12.5066784 157.393376,12.1518076 157.131531,11.8025064 C157.077246,11.7301 157.022429,11.6584893 156.967612,11.5866134 C156.699114,11.2338643 156.427157,10.8856241 156.148813,10.5464015 C156.146152,10.5429535 156.143757,10.5395056 156.141096,10.5363229 C155.788244,10.1066586 156.280268,9.4982328 156.774155,9.75523569 M170.355314,25.7044511 C169.485423,20.3747575 167.150637,15.6861123 163.583528,12.130773 C160.016154,8.57543375 155.312254,6.2483508 149.965183,5.38159595 C145.569164,2.22621575 140.592243,0.556094785 135.547465,0.556094785 C130.502421,0.556094785 125.525234,2.22621575 121.129747,5.38159595 C115.782411,6.2483508 111.078245,8.57543375 107.511136,12.130773 C103.943761,15.6863776 101.608975,20.3750227 100.739351,25.7047163 C97.5735253,30.0857006 95.8981418,35.0464664 95.8981418,40.0745994 C95.8981418,45.1029976 97.5735253,50.0634982 100.739351,54.4450129 C101.608975,59.7741761 103.943761,64.4628212 107.511136,68.0184257 C111.077978,71.573765 115.782144,73.900848 121.129481,74.7678681 C125.524968,77.9232483 130.502421,79.593104 135.547465,79.593104 C140.592509,79.593104 145.569431,77.9232483 149.965449,74.7678681 C155.312254,73.900848 160.016686,71.573765 163.583528,68.0184257 C167.150637,64.4630865 169.485423,59.7744413 170.355314,54.4452782 C173.521139,50.0637634 175.196789,45.1029976 175.196789,40.0745994 C175.196789,35.0464664 173.521139,30.0854354 170.355314,25.7044511" id="Fill-1" fill="#FFFFFF"></path>
                <g id="BG" transform="translate(0.000000, 4.192308)" stroke="#FFFFFF" opacity="0.462126359">
                    <g id="10">
                        <path d="M118.686776,57.7099016 C117.931868,58.8333463 117.073008,59.8779886 116.115723,60.832115 C112.899431,64.0380346 108.657351,66.1364112 103.836032,66.9182203 C99.8720554,69.7634889 95.3842671,71.2692308 90.8350515,71.2692308 C86.285836,71.2692308 81.7975678,69.7634889 77.8340707,66.9182203 C73.0122718,66.1364112 68.7704324,64.0380346 65.5541402,60.832115 C62.337368,57.6259562 60.2320451,53.3981124 59.4478879,48.5927008 C56.5932006,44.6418025 55.0824742,40.1688212 55.0824742,35.6346154 C55.0824742,31.1006487 56.5932006,26.6274282 59.4478879,22.6770083 C60.2320451,17.8711184 62.337368,13.6432745 65.5541402,10.4371158 C68.7706724,7.23119618 73.0125117,5.13281957 77.8343107,4.35124961 C81.7978078,1.50598103 86.285836,0 90.8350515,0 C95.3840271,0 99.8718154,1.50598103 103.835792,4.35124961 C108.657351,5.13281957 112.898951,7.23119618 116.115723,10.4371158 C116.959925,11.2785324 117.727583,12.1903431 118.414905,13.1645229 C118.401481,13.1756996 118.388087,13.1869274 118.374731,13.1982214 C118.160518,13.3788395 117.949765,13.5647621 117.738213,13.7496238 C117.602767,13.8676489 117.465458,13.983287 117.331342,14.1031686 C117.095042,14.3140224 116.862468,14.5304458 116.629628,14.7460737 C116.523187,14.8447373 116.41515,14.9407487 116.309507,15.0404733 C115.972354,15.3582126 115.638928,15.6812565 115.309492,16.0093397 C114.980323,16.3374228 114.656476,16.6697496 114.337685,17.0055243 C114.236033,17.1126751 114.138108,17.2224782 114.037521,17.3301595 C113.82251,17.5606399 113.607232,17.7905899 113.397277,18.024253 C113.276999,18.1581915 113.160978,18.2947823 113.042296,18.4297818 C112.856822,18.6406356 112.67055,18.8509589 112.489068,19.0644649 C112.404448,19.1641894 112.32302,19.2660358 112.239198,19.3662908 C109.877003,22.6579966 108.225569,26.4881088 107.507357,30.633043 C107.49006,30.8149872 107.470103,30.9961358 107.454935,31.1783453 C107.431784,31.4536487 107.414753,31.7302782 107.396392,32.0063773 C107.384417,32.1891172 107.36925,32.3713267 107.358872,32.5545971 C107.342107,32.861197 107.331463,33.1688579 107.320021,33.4762535 C107.314432,33.6300839 107.305651,33.7833839 107.301393,33.9377448 C107.28862,34.3995012 107.281968,34.8625839 107.281968,35.3261969 C107.281968,35.7900752 107.28862,36.2528926 107.301393,36.7149143 C107.305651,36.8687447 107.314432,37.0220447 107.320021,37.1756099 C107.331463,37.483536 107.342107,37.7911968 107.358872,38.098062 C107.36925,38.2808019 107.384417,38.4627461 107.396392,38.6452209 C107.414753,38.9218504 107.431784,39.1987451 107.454935,39.4743138 C107.470103,39.6565233 107.49006,39.8376718 107.507357,40.0196161 C108.225569,44.164285 109.876737,47.9941321 112.238665,51.2855726 C112.322488,51.3860928 112.404181,51.4879392 112.488802,51.5879289 C112.668954,51.8001088 112.854427,52.0088408 113.038571,52.2183684 C113.158583,52.3549593 113.2762,52.4934066 113.397809,52.6289365 C113.603241,52.8575604 113.813728,53.0822058 114.023683,53.307647 C114.12906,53.4206328 114.231776,53.5354751 114.338217,53.6476652 C114.657008,53.9831747 114.980589,54.3152362 115.309492,54.6430541 C115.638928,54.9714025 115.972354,55.2941812 116.309241,55.6121858 C116.415682,55.7124408 116.524784,55.8089826 116.631757,55.908442 C116.864331,56.1238046 117.096107,56.3396976 117.33214,56.5500209 C117.465458,56.6691069 117.601702,56.7839492 117.73635,56.9014439 C117.9487,57.086836 118.160252,57.2732891 118.375263,57.4547029 C118.475584,57.5393097 118.578033,57.6207337 118.678886,57.7042795 C118.681516,57.706154 118.684146,57.708028 118.686776,57.7099016 Z" id="Combined-Shape" stroke-width="2.52" opacity="0.893568841" style="mix-blend-mode: overlay;" filter="url(#filter-1)"></path>
                        <polygon id="Star" stroke-width="2.016" opacity="0.899456522" style="mix-blend-mode: overlay;" stroke-linecap="round" stroke-linejoin="round" filter="url(#filter-2)" points="56.0824742 60.6786404 44.8150115 62.0482083 37.8193488 53.1387656 28.8804129 46.1661843 30.2545145 34.9358974 28.8804129 23.7056106 37.8193488 16.7330293 44.8150115 7.82358654 56.0824742 9.19315444 67.3499369 7.82358654 74.3455997 16.7330293 83.2845355 23.7056106 81.9104339 34.9358974 83.2845355 46.1661843 74.3455997 53.1387656 67.3499369 62.0482083"></polygon>
                        <ellipse id="Oval" stroke-width="1.5876" opacity="0.798629982" style="mix-blend-mode: overlay;" filter="url(#filter-3)" cx="24.185567" cy="35.2852564" rx="24.185567" ry="24.1057692"></ellipse>
                    </g>
                    <g id="10" transform="translate(212.000000, 36.000000) scale(-1, 1) translate(-212.000000, -36.000000) translate(152.000000, 0.000000)">
                        <path d="M119.504389,57.9768809 C118.794408,58.9992071 117.996749,59.9539956 117.115723,60.832115 C113.899431,64.0380346 109.657351,66.1364112 104.836032,66.9182203 C100.872055,69.7634889 96.3842671,71.2692308 91.8350515,71.2692308 C87.285836,71.2692308 82.7975678,69.7634889 78.8340707,66.9182203 C74.0122718,66.1364112 69.7704324,64.0380346 66.5541402,60.832115 C63.337368,57.6259562 61.2320451,53.3981124 60.4478879,48.5927008 C57.5932006,44.6418025 56.0824742,40.1688212 56.0824742,35.6346154 C56.0824742,31.1006487 57.5932006,26.6274282 60.4478879,22.6770083 C61.2320451,17.8711184 63.337368,13.6432745 66.5541402,10.4371158 C69.7706724,7.23119618 74.0125117,5.13281957 78.8343107,4.35124961 C82.7978078,1.50598103 87.285836,0 91.8350515,0 C96.3840271,0 100.871815,1.50598103 104.835792,4.35124961 C109.657351,5.13281957 113.898951,7.23119618 117.115723,10.4371158 C117.877323,11.1962029 118.576625,12.0125823 119.210845,12.8803619 C119.178474,12.9032319 119.146154,12.9261698 119.113886,12.9491752 C119.013033,13.032721 118.91085,13.1136146 118.810795,13.1982214 C118.596582,13.3788395 118.385829,13.5647621 118.174277,13.7496238 C118.038831,13.8676489 117.901522,13.983287 117.767406,14.1031686 C117.531107,14.3140224 117.298533,14.5304458 117.065693,14.7460737 C116.959252,14.8447373 116.851214,14.9407487 116.745571,15.0404733 C116.408419,15.3582126 116.074992,15.6812565 115.745557,16.0093397 C115.416387,16.3374228 115.09254,16.6697496 114.773749,17.0055243 C114.672098,17.1126751 114.574172,17.2224782 114.473585,17.3301595 C114.258574,17.5606399 114.043297,17.7905899 113.833342,18.024253 C113.713063,18.1581915 113.597042,18.2947823 113.47836,18.4297818 C113.292887,18.6406356 113.106615,18.8509589 112.925133,19.0644649 C112.840512,19.1641894 112.759084,19.2660358 112.675262,19.3662908 C110.313067,22.6579966 108.661633,26.4881088 107.943421,30.633043 C107.926125,30.8149872 107.906167,30.9961358 107.890999,31.1783453 C107.867848,31.4536487 107.850817,31.7302782 107.832456,32.0063773 C107.820482,32.1891172 107.805314,32.3713267 107.794936,32.5545971 C107.778171,32.861197 107.767527,33.1688579 107.756085,33.4762535 C107.750497,33.6300839 107.741715,33.7833839 107.737458,33.9377448 C107.724685,34.3995012 107.718032,34.8625839 107.718032,35.3261969 C107.718032,35.7900752 107.724685,36.2528926 107.737458,36.7149143 C107.741715,36.8687447 107.750497,37.0220447 107.756085,37.1756099 C107.767527,37.483536 107.778171,37.7911968 107.794936,38.098062 C107.805314,38.2808019 107.820482,38.4627461 107.832456,38.6452209 C107.850817,38.9218504 107.867848,39.1987451 107.890999,39.4743138 C107.906167,39.6565233 107.926125,39.8376718 107.943421,40.0196161 C108.661633,44.164285 110.312801,47.9941321 112.67473,51.2855726 C112.758552,51.3860928 112.840246,51.4879392 112.924866,51.5879289 C113.105018,51.8001088 113.290492,52.0088408 113.474635,52.2183684 C113.594647,52.3549593 113.712265,52.4934066 113.833874,52.6289365 C114.039305,52.8575604 114.249793,53.0822058 114.459748,53.307647 C114.565124,53.4206328 114.66784,53.5354751 114.774281,53.6476652 C115.093072,53.9831747 115.416653,54.3152362 115.745557,54.6430541 C116.074992,54.9714025 116.408419,55.2941812 116.745305,55.6121858 C116.851746,55.7124408 116.960848,55.8089826 117.067822,55.908442 C117.300395,56.1238046 117.532171,56.3396976 117.768204,56.5500209 C117.901522,56.6691069 118.037766,56.7839492 118.172415,56.9014439 C118.384765,57.086836 118.596316,57.2732891 118.811327,57.4547029 C118.911648,57.5393097 119.014098,57.6207337 119.114951,57.7042795 C119.243944,57.7962317 119.373761,57.8871032 119.504389,57.9768809 Z" id="Combined-Shape" stroke-width="2.52" opacity="0.893568841" style="mix-blend-mode: overlay;" filter="url(#filter-4)"></path>
                        <polygon id="Star" stroke-width="2.016" opacity="0.899456522" style="mix-blend-mode: overlay;" stroke-linecap="round" stroke-linejoin="round" filter="url(#filter-5)" points="56.0824742 60.6786404 44.8150115 62.0482083 37.8193488 53.1387656 28.8804129 46.1661843 30.2545145 34.9358974 28.8804129 23.7056106 37.8193488 16.7330293 44.8150115 7.82358654 56.0824742 9.19315444 67.3499369 7.82358654 74.3455997 16.7330293 83.2845355 23.7056106 81.9104339 34.9358974 83.2845355 46.1661843 74.3455997 53.1387656 67.3499369 62.0482083"></polygon>
                        <ellipse id="Oval" stroke-width="1.5876" opacity="0.798629982" style="mix-blend-mode: overlay;" filter="url(#filter-6)" cx="24.185567" cy="35.2852564" rx="24.185567" ry="24.1057692"></ellipse>
                    </g>
                </g>
            </g>
        </g>
    </g>
</svg>